<?xml version="1.0" standalone="no"?>
<!DOCTYPE svg PUBLIC "-//W3C//DTD SVG 20010904//EN"
 "http://www.w3.org/TR/2001/REC-SVG-20010904/DTD/svg10.dtd">
<svg version="1.0" xmlns="http://www.w3.org/2000/svg"
 width="540.000000pt" height="540.000000pt" viewBox="0 0 540.000000 540.000000"
 preserveAspectRatio="xMidYMid meet">
<metadata>
Created by potrace 1.11, written by Peter Selinger 2001-2013
</metadata>
<g transform="translate(0.000000,540.000000) scale(0.100000,-0.100000)"
fill="#000000" stroke="none">
<path d="M2100 2719 l0 -1690 48 6 c127 16 194 29 267 52 348 108 650 401 758
738 44 138 52 191 51 360 -1 141 -4 172 -28 260 -30 112 -101 268 -170 375
-25 39 -46 75 -46 81 0 5 14 38 31 72 123 242 142 538 53 789 -105 293 -365
533 -662 609 -73 18 -216 39 -274 39 l-28 0 0 -1691z m279 1494 c226 -62 437
-267 524 -508 135 -377 -32 -811 -383 -994 -67 -35 -202 -81 -237 -81 -10 0
-13 161 -13 805 l0 805 28 -6 c15 -3 51 -12 81 -21z m580 -1610 c122 -245 132
-520 29 -786 -74 -192 -265 -404 -448 -497 -66 -33 -180 -75 -232 -84 l-38 -7
0 610 0 611 28 6 c205 46 357 119 515 245 l60 49 24 -35 c13 -19 41 -70 62
-112z"/>
</g>
</svg>
