<?xml version="1.0" standalone="no"?>
<!DOCTYPE svg PUBLIC "-//W3C//DTD SVG 1.1//EN" "http://www.w3.org/Graphics/SVG/1.1/DTD/svg11.dtd" >
<svg>
<metadata>
Created by FontForge 20090622 at Sun Feb  7 12:00:10 2016
 By deploy user
&#194;&#169; 1988, 1995, 2001, 2002 Adobe Systems Incorporated. All rights reserved.
</metadata>
<defs>
<font id="SerifGothicStd" horiz-adv-x="611" >
  <font-face 
    font-family="ITC Serif Gothic Std"
    font-weight="400"
    font-stretch="normal"
    units-per-em="1000"
    panose-1="2 14 5 2 2 2 6 2 3 4"
    ascent="712"
    descent="-288"
    x-height="490"
    cap-height="712"
    bbox="-167 -250 1000 960"
    underline-thickness="50"
    underline-position="-50"
    unicode-range="U+0020-U+FB02"
  />
<missing-glyph horiz-adv-x="500" 
d="M0 0v700h500v-700h-500zM250 395l170 255h-340zM280 350l170 -255v510zM80 50h340l-170 255zM50 605v-510l170 255z" />
    <glyph glyph-name="f_i" unicode="fi" horiz-adv-x="500" 
d="M427 490v-449q0 -31 18 -41h-106q18 9 18 71v374q0 35 -16 45h86zM391 657q18 0 31.5 -13t13.5 -32t-13.5 -32t-31.5 -13t-31.5 13t-13.5 32t13.5 32t31.5 13zM21 414v74h66v55q0 77 53.5 131t106.5 54q17 0 35 8v-80h-10q-50 0 -82.5 -28.5t-32.5 -85.5v-52h125v-76
q-10 4 -25 6q-18 2 -27 2h-73v-381q0 -31 18 -41h-106q18 9 18 71v351h-30q-18 0 -36 -8z" />
    <glyph glyph-name="f_l" unicode="fl" horiz-adv-x="500" 
d="M21 414v74h66v55q0 77 53.5 131t106.5 54q17 0 35 8v-80h-10q-50 0 -82.5 -28.5t-32.5 -85.5v-52h125v-76q-10 4 -25 6q-18 2 -27 2h-73v-381q0 -31 18 -41h-106q18 9 18 71v351h-30q-18 0 -36 -8zM445 0h-106q18 9 18 71v596q0 35 -16 45h86v-671q0 -31 18 -41z" />
    <glyph glyph-name=".notdef" horiz-adv-x="500" 
d="M0 0v700h500v-700h-500zM250 395l170 255h-340zM280 350l170 -255v510zM80 50h340l-170 255zM50 605v-510l170 255z" />
    <glyph glyph-name=".null" horiz-adv-x="0" 
 />
    <glyph glyph-name="nonmarkingreturn" horiz-adv-x="333" 
 />
    <glyph glyph-name="space" unicode=" " horiz-adv-x="305" 
 />
    <glyph glyph-name="exclam" unicode="!" horiz-adv-x="278" 
d="M75 712h131q-23 -16 -23 -44l-13 -463q0 -18 12 -36h-83q12 18 12 36l-13 463q0 28 -23 44zM143 88q20 0 35.5 -15t15.5 -36t-15.5 -36t-35.5 -15t-35.5 15t-15.5 36t15.5 36t35.5 15z" />
    <glyph glyph-name="quotedbl" unicode="&#x22;" horiz-adv-x="333" 
d="M78 441v271h58v-271h-58zM198 441v271h58v-271h-58z" />
    <glyph glyph-name="numbersign" unicode="#" 
d="M527 279v-51h-109l-32 -228h-57l33 228h-139l-31 -228h-57l32 228h-113v51h120l22 154h-112v51h119l31 228h57l-32 -228h138l32 228h57l-33 -228h104v-51h-111l-21 -154h102zM390 433h-138l-22 -154h139z" />
    <glyph glyph-name="dollar" unicode="$" 
d="M303 383v-331q57 11 90 53t33 104q0 16 -1.5 29t-7 26t-8 21.5t-13.5 20t-14 16.5t-18.5 17l-18 14t-21.5 15.5t-21 14.5zM124 -11v113q69 -53 111 -53v362q-102 47 -102 159q0 54 28 96t74 55v39q0 19 -10 34h78v-66q13 0 43.5 -5t35.5 -5q25 0 43 12v-113
q-62 43 -130 43q-42 0 -68 -25t-26 -67q0 -26 16 -47.5t42 -37.5t57.5 -32t62.5 -37t57 -47t42 -67t16 -92q0 -86 -56 -155t-135 -69v-42q0 -22 7 -35h-73v77q-19 0 -44.5 6t-43.5 6q-17 0 -25 -7z" />
    <glyph glyph-name="percent" unicode="%" horiz-adv-x="889" 
d="M260 712q64 0 110.5 -46t46.5 -110t-46.5 -110t-110.5 -46t-110.5 46t-46.5 110t46.5 110t110.5 46zM260 656q-42 0 -71.5 -29.5t-29.5 -70.5t29.5 -70.5t71.5 -29.5t71.5 29.5t29.5 70.5t-29.5 70.5t-71.5 29.5zM624 312q64 0 110.5 -46t46.5 -110t-46.5 -110
t-110.5 -46t-110.5 46t-46.5 110t46.5 110t110.5 46zM624 256q-42 0 -71.5 -29.5t-29.5 -70.5t29.5 -70.5t71.5 -29.5t71.5 29.5t29.5 70.5t-29.5 70.5t-71.5 29.5zM285 -16h-74q15 14 32 44l342 627q26 45 26 56q0 12 -4 17h83q-21 -19 -44 -61l-354 -643q-13 -24 -13 -28
q0 -6 6 -12z" />
    <glyph glyph-name="ampersand" unicode="&#x26;" horiz-adv-x="667" 
d="M403 724v-90q-43 26 -78 26q-65 0 -100 -38.5t-35 -101.5q0 -35 20.5 -66t52.5 -41q-136 -35 -136 -181q0 -76 54.5 -128t132.5 -52q81 0 137 51t56 129q0 42 -21 82h-64q-18 0 -26 -0.5t-16.5 -4t-13.5 -10.5v83h241q33 0 43 11v-79h-88q21 -57 21 -87q0 -83 -58 -149
q-86 -94 -207 -94q-116 0 -191.5 72t-75.5 184q0 60 30 114t83 67q-50 40 -50 109q0 80 57.5 139t139.5 59q18 0 38 -5q5 -1 11.5 -2t11 -2t6.5 -1q15 0 25 6z" />
    <glyph glyph-name="quotesingle" unicode="'" horiz-adv-x="222" 
d="M82 441v271h58v-271h-58z" />
    <glyph glyph-name="parenleft" unicode="(" horiz-adv-x="389" 
d="M295 -81l-38 -63q0 1 -0.5 4.5t-1 5l-1.5 4.5t-2.5 5t-4 5t-7 6.5l-9.5 7.5q-99 70 -149.5 166t-50.5 233q0 82 18.5 149.5t52.5 115t58.5 72t59.5 53.5q24 19 30 27t7 18l38 -63q-206 -116 -206 -375q0 -258 206 -371z" />
    <glyph glyph-name="parenright" unicode=")" horiz-adv-x="389" 
d="M94 665l38 63q0 -1 0.5 -4.5t1 -5l1.5 -4.5t2.5 -5t4 -5t7 -6.5l9.5 -7.5q99 -70 149.5 -166t50.5 -233q0 -82 -18.5 -149.5t-52.5 -115t-58.5 -72t-59.5 -53.5q-24 -19 -30 -27t-7 -18l-38 63q206 116 206 375q0 258 -206 371z" />
    <glyph glyph-name="asterisk" unicode="*" horiz-adv-x="444" 
d="M355 666l50 -86q-65 -9 -130 -37q1 -3 1 -8q0 -6 -2 -12q61 -26 125 -35l-50 -86q-11 20 -89 94q-12 -12 -28 -13q12 -77 39 -128h-100q20 45 33 130q-12 1 -22 13l-28 -27l-28 -27t-19 -20.5t-16 -21.5l-50 86q66 9 127 36q-2 4 -2 11q0 8 3 12q-63 28 -130 37l50 86
q5 -9 16 -21.5t19.5 -21l28.5 -28t29 -27.5h-1l2 -2q7 12 24 15q-11 80 -32 127h100q-28 -53 -38 -127q16 -4 26 -16l28 27l28.5 27.5t19.5 21t16 21.5z" />
    <glyph glyph-name="plus" unicode="+" horiz-adv-x="600" 
d="M272 273v217h56v-217h216v-56h-216v-217h-56v217h-216v56h216z" />
    <glyph glyph-name="comma" unicode="," horiz-adv-x="305" 
d="M206 88l-68 -146q-16 -37 -16 -40q0 -6 10 -14h-46l31 143q8 38 8 40q0 7 -12 17h93z" />
    <glyph glyph-name="hyphen" unicode="-" horiz-adv-x="333" 
d="M43 198v79h181q30 0 66 18v-81h-188q-39 0 -59 -16z" />
    <glyph glyph-name="period" unicode="." horiz-adv-x="305" 
d="M152 88q20 0 35.5 -15t15.5 -36t-15.5 -36t-35.5 -15t-35.5 15t-15.5 36t15.5 36t35.5 15z" />
    <glyph glyph-name="slash" unicode="/" horiz-adv-x="278" 
d="M292 728l-247 -744h-58l243 744h62z" />
    <glyph glyph-name="zero" unicode="0" 
d="M115 447v-182q0 -213 190 -213t190 213v182q0 213 -190 213t-190 -213zM47 225v262q0 38 14 77.5t42 77.5t81 62t121 24t121 -24t81 -62t42 -77.5t14 -77.5v-262q0 -62 -24 -110t-62.5 -75.5t-82.5 -41.5t-89 -14q-68 0 -121 24t-81 62t-42 77.5t-14 77.5z" />
    <glyph glyph-name="one" unicode="1" 
d="M168 382l-52 39q23 17 35 31l245 276v-687q0 -31 18 -41h-104q18 9 18 71v488h-2z" />
    <glyph glyph-name="two" unicode="2" 
d="M113 467h-78q10 30 10 42q0 87 77 153t178 66q94 0 165 -69.5t71 -163.5q0 -48 -16.5 -88t-36.5 -63.5t-61 -63.5l-221 -212h276q44 0 62 17v-85h-488l306 310q35 35 53.5 56t38 58t19.5 71q0 75 -53.5 120t-128.5 45q-79 0 -126 -57t-47 -136z" />
    <glyph glyph-name="three" unicode="3" 
d="M175 525h-80q8 15 14 51q11 67 67.5 109.5t125.5 42.5q82 0 133.5 -49.5t51.5 -120.5q0 -52 -8 -79t-32 -49q54 -17 79.5 -69.5t25.5 -116.5q0 -111 -74 -185.5t-183 -74.5q-105 0 -181.5 77.5t-76.5 173.5q0 18 -6 30h74q0 -90 52 -151.5t139 -61.5q78 0 133 56.5
t55 134.5q0 74 -47 118t-124 58q106 22 106 116q0 52 -30 88.5t-82 36.5q-60 0 -96 -37.5t-36 -97.5z" />
    <glyph glyph-name="four" unicode="4" 
d="M392 118h-329l-49 90q27 16 42 34l401 486h2v-542h59q32 0 49 9v-77h-108v-77q0 -31 19 -41h-104q18 9 18 71v47zM91 186h301v364h-4z" />
    <glyph glyph-name="five" unicode="5" 
d="M49 93l59 57q59 -98 179 -98q81 0 139 60.5t58 139.5q0 81 -61.5 133.5t-145.5 52.5q-82 0 -152 -70l30 344h316v-82q-29 14 -66 14h-194l-14 -155q24 8 52 13q23 4 55 4q103 0 175.5 -77t72.5 -180q0 -111 -78 -188t-190 -77t-188 70q-39 37 -47 39z" />
    <glyph glyph-name="six" unicode="6" 
d="M268 712h117q-23 -19 -57 -70l-120 -173l2 -2q42 25 94 25q66 0 118.5 -24t82.5 -63t45 -81.5t15 -85.5q0 -107 -77.5 -180.5t-183.5 -73.5q-104 0 -183 68t-79 188q0 36 15.5 78.5t29.5 67.5t47 76l40 62q25 40 53.5 81.5l42.5 61.5t14 23q0 5 -2.5 9t-7.5 9zM304 52
q79 0 135 55t56 131t-56 131t-135 55t-135.5 -55t-56.5 -131t56.5 -131t135.5 -55z" />
    <glyph glyph-name="seven" unicode="7" 
d="M65 633v79h493l-248 -632q-20 -52 -20 -58q0 -12 12 -22h-121q26 23 39 54l241 590h-345q-32 0 -51 -11z" />
    <glyph glyph-name="eight" unicode="8" 
d="M482 556q0 -44 -14.5 -71t-51.5 -53q65 -23 99 -76t34 -125q0 -106 -70 -176.5t-174 -70.5q-107 0 -175.5 70.5t-68.5 178.5q0 68 38 127t101 76q-31 16 -48.5 49.5t-17.5 69.5q0 78 50.5 125.5t127.5 47.5q70 0 120 -50.5t50 -121.5zM305 396q-71 0 -123.5 -50.5
t-52.5 -121.5t52.5 -121.5t123.5 -50.5t123.5 50.5t52.5 121.5t-52.5 121.5t-123.5 50.5zM308 660q-42 0 -74 -31.5t-32 -74.5t32 -74.5t74 -31.5t74 31.5t32 74.5t-32 74.5t-74 31.5z" />
    <glyph glyph-name="nine" unicode="9" 
d="M339 0h-117q23 19 57 70l120 168l-2 2q-42 -25 -94 -25q-66 0 -118.5 24t-82.5 63t-45 81.5t-15 85.5q0 107 77.5 180.5t183.5 73.5q104 0 183 -68t79 -188q0 -34 -15.5 -75.5t-29.5 -66.5t-46.5 -74.5t-40.5 -62.5q-25 -40 -53.5 -81.5l-42.5 -61.5t-14 -23q0 -5 2.5 -9
t8.5 -9zM303 655q-79 0 -135 -55t-56 -131t56 -131t135 -55t135.5 55t56.5 131t-56.5 131t-135.5 55z" />
    <glyph glyph-name="colon" unicode=":" horiz-adv-x="305" 
d="M152 88q20 0 35.5 -15t15.5 -36t-15.5 -36t-35.5 -15t-35.5 15t-15.5 36t15.5 36t35.5 15zM152 396q20 0 35.5 -15t15.5 -36t-15.5 -36t-35.5 -15t-35.5 15t-15.5 36t15.5 36t35.5 15z" />
    <glyph glyph-name="semicolon" unicode=";" horiz-adv-x="305" 
d="M113 88h93l-68 -146q-16 -37 -16 -40q0 -6 10 -14h-46l31 143q8 38 8 40q0 7 -12 17zM152 396q20 0 35.5 -15t15.5 -36t-15.5 -36t-35.5 -15t-35.5 15t-15.5 36t15.5 36t35.5 15z" />
    <glyph glyph-name="less" unicode="&#x3c;" horiz-adv-x="600" 
d="M554 46v-62l-508 232v58l508 232v-62l-436 -199z" />
    <glyph glyph-name="equal" unicode="=" horiz-adv-x="600" 
d="M544 369v-56h-488v56h488zM544 177v-56h-488v56h488z" />
    <glyph glyph-name="greater" unicode="&#x3e;" horiz-adv-x="600" 
d="M46 46l436 199l-436 199v62l508 -232v-58l-508 -232v62z" />
    <glyph glyph-name="question" unicode="?" horiz-adv-x="444" 
d="M47 613v115q11 -6 13 -7q10 -2 16 -2q13 0 35 5q26 4 47 4q104 0 171.5 -69t67.5 -166q0 -84 -58.5 -148t-124.5 -64q-8 0 -20 4v-71q0 -22 10 -45h-88q10 23 10 45v144q24 -9 59 -9q71 0 107.5 44.5t36.5 109.5q0 69 -49.5 113t-119.5 44q-60 0 -113 -47zM158 88
q20 0 35.5 -15t15.5 -36t-15.5 -36t-35.5 -15t-35.5 15t-15.5 36t15.5 36t35.5 15z" />
    <glyph glyph-name="at" unicode="@" horiz-adv-x="800" 
d="M343 191q65 0 114 78t49 151q0 36 -25 66t-56 30q-69 0 -118.5 -74.5t-49.5 -150.5q0 -44 24.5 -72t61.5 -28zM538 491l24 64h59l-93 -288q-11 -35 -11 -53q0 -30 23 -30q57 0 106 77t49 158q0 116 -81.5 187t-196.5 71q-133 0 -222 -95t-89 -230q0 -132 91 -224.5
t223 -92.5q74 0 143.5 34.5t113.5 94.5h58q-47 -83 -132.5 -131.5t-182.5 -48.5q-158 0 -266 109t-108 266q0 153 109 261t260 108q142 0 240.5 -87.5t98.5 -220.5q0 -117 -75 -202t-156 -85q-27 0 -45.5 17.5t-20.5 49.5l-2 -1q-62 -66 -127 -66q-62 0 -100.5 44t-38.5 108
q0 110 67.5 199.5t170.5 89.5q79 0 111 -83z" />
    <glyph glyph-name="A" unicode="A" horiz-adv-x="667" 
d="M199 263h256l-129 303h-2zM486 195h-308l-64 -155q-9 -22 -9 -24q0 -5 8 -16h-112q12 8 18 21l302 707h2l317 -689q13 -25 25 -39h-114q8 11 8 16q0 2 -9 24z" />
    <glyph glyph-name="B" unicode="B" horiz-adv-x="556" 
d="M257 0h-197q13 20 13 35v693q14 -8 25 -11q15 -5 28 -5q11 0 63 9q54 7 74 7q84 0 149.5 -56t65.5 -137q0 -45 -13 -74t-48 -54q112 -56 112 -178q0 -51 -18.5 -91.5t-47 -65.5t-66 -42t-72 -23.5t-68.5 -6.5zM149 650v-582h125q86 0 132.5 43t46.5 113q0 84 -43.5 120.5
t-115.5 48.5v3q42 4 75 37t33 95q0 60 -42.5 96t-104.5 36q-17 0 -54 -5t-52 -5z" />
    <glyph glyph-name="C" unicode="C" 
d="M583 714v-104q-66 42 -168 42q-127 0 -216.5 -84t-89.5 -212t89.5 -212t216.5 -84q101 0 166 42v-107q-12 9 -31 9q-15 0 -65 -10t-87 -10q-153 0 -259 113t-106 264q0 106 54.5 191t144 130.5t194.5 45.5q36 0 78 -10q40 -10 56 -10t23 6z" />
    <glyph glyph-name="D" unicode="D" horiz-adv-x="667" 
d="M152 645v-577h85q130 0 222.5 87t92.5 216q0 122 -86 205.5t-209 83.5q-22 0 -58.5 -7.5t-46.5 -7.5zM76 35v693q10 -8 19 -12q14 -4 23 -4q4 0 69 9q68 7 86 7q151 -6 253 -108t102 -252q0 -155 -109.5 -261.5t-291.5 -106.5h-163q12 15 12 35z" />
    <glyph glyph-name="E" unicode="E" horiz-adv-x="500" 
d="M466 0h-396q12 15 12 35v642q0 20 -12 35h396v-75q-25 7 -54 7h-254v-253h160q47 0 67 12v-92q-20 12 -67 12h-160v-255h254q29 0 54 7v-75z" />
    <glyph glyph-name="F" unicode="F" horiz-adv-x="444" 
d="M82 35v642q0 20 -12 35h368v-75q-25 7 -54 7h-226v-253h141q47 0 67 12v-92q-20 12 -67 12h-141v-288q0 -20 12 -35h-100q12 15 12 35z" />
    <glyph glyph-name="G" unicode="G" horiz-adv-x="722" 
d="M589 716v-105q-69 41 -174 41q-124 0 -212.5 -87.5t-88.5 -208.5q0 -129 90.5 -212.5t223.5 -83.5q72 0 153 33v230h-173q-21 0 -39 -8v84q18 -8 39 -8h249v-277q0 -46 4 -63q-125 -67 -240 -67q-167 0 -275 109.5t-108 273.5q0 157 117.5 259t276.5 102q19 0 71 -8
q50 -8 64 -8q12 0 22 4z" />
    <glyph glyph-name="H" unicode="H" horiz-adv-x="667" 
d="M158 399h351v278q0 20 -12 35h100q-12 -15 -12 -35v-642q0 -20 12 -35h-100q12 15 12 35v296h-351v-296q0 -20 12 -35h-100q12 15 12 35v642q0 20 -12 35h100q-12 -15 -12 -35v-278z" />
    <glyph glyph-name="I" unicode="I" horiz-adv-x="222" 
d="M149 677v-642q0 -20 12 -35h-100q12 15 12 35v642q0 20 -12 35h100q-12 -15 -12 -35z" />
    <glyph glyph-name="J" unicode="J" horiz-adv-x="333" 
d="M169 712h100q-12 -15 -12 -35v-494q0 -87 -51.5 -143t-128.5 -56q-13 0 -25 3q-14 2 -20 2q-15 0 -23 -7v91q26 -13 66 -13q51 0 78.5 37t27.5 106v474q0 20 -12 35z" />
    <glyph glyph-name="K" unicode="K" 
d="M529 675l-260 -297v-2q69 -5 129.5 -41t99 -87.5t61 -110.5t22.5 -113q0 -8 8 -24h-87q3 20 3 37q0 129 -104 213.5t-243 84.5v-300q0 -20 12 -35h-100q12 15 12 35v642q0 20 -12 35h100q-12 -15 -12 -35v-334h2l280 333q11 14 11 17q0 6 -13 19h131q-12 -7 -40 -37z" />
    <glyph glyph-name="L" unicode="L" horiz-adv-x="444" 
d="M438 0h-374q12 15 12 35v642q0 20 -12 35h100q-12 -15 -12 -35v-609h217q36 0 69 15v-83z" />
    <glyph glyph-name="M" unicode="M" horiz-adv-x="778" 
d="M599 498l-209 -519h-2l-211 529h-2l-85 -459q-1 -5 -2 -11.5t-2 -11t-1 -8.5q1 -7 9 -18h-99q10 11 15 33l146 695h2l230 -583l2 -5l225 588h2l150 -695q5 -22 15 -33h-100q8 11 9 18q0 4 -1 8.5t-2 11t-2 11.5l-85 449h-2z" />
    <glyph glyph-name="N" unicode="N" horiz-adv-x="667" 
d="M158 534v-499q0 -20 12 -35h-100q12 15 12 35v715h2l424 -556h1v483q0 20 -12 35h100q-12 -15 -12 -35v-693h-2l-423 552z" />
    <glyph glyph-name="O" unicode="O" horiz-adv-x="833" 
d="M416 652q-125 0 -213.5 -87t-88.5 -209q0 -123 88 -209.5t214 -86.5t214 86.5t88 209.5q0 122 -88.5 209t-213.5 87zM416 728q157 0 267.5 -109t110.5 -263q0 -153 -110.5 -262.5t-267.5 -109.5t-267.5 109.5t-110.5 262.5q0 154 110.5 263t267.5 109z" />
    <glyph glyph-name="P" unicode="P" horiz-adv-x="500" 
d="M147 636v-281q59 -26 94 -26q75 0 123 44t48 117q0 71 -44 116.5t-116 45.5q-18 0 -58 -8t-47 -8zM488 481q0 -92 -65.5 -160t-158.5 -68q-70 0 -117 34v-252q0 -20 12 -35h-100q12 15 12 35v693q9 -8 21 -12q16 -4 23 -4q15 0 61 8q48 8 76 8q103 0 169.5 -72.5
t66.5 -174.5z" />
    <glyph glyph-name="Q" unicode="Q" horiz-adv-x="833" 
d="M373 314h129l-3 -3t-3.5 -3t-2.5 -4t-1 -7q0 -9 106 -133l22 -27q98 88 98 219q0 122 -88.5 209t-213.5 87t-213.5 -87t-88.5 -209q0 -123 88 -209.5t214 -86.5q78 0 144 36l-112 137l-13 16.5l-14.5 18.5l-13.5 16.5t-16.5 16.5t-17.5 13zM771 -43h-123q8 5 8 14
q0 6 -44 61l-4 4q-88 -52 -192 -52q-157 0 -267.5 109.5t-110.5 262.5q0 154 110.5 263t267.5 109t267.5 -109t110.5 -263q0 -81 -33.5 -153t-93.5 -124l38 -47q51 -62 66 -75z" />
    <glyph glyph-name="R" unicode="R" 
d="M82 35v693q9 -6 22 -11t27 -5q15 0 53 8t60 8q103 0 171.5 -66t68.5 -167q0 -55 -26 -100.5t-76 -60.5v-2q91 -21 148 -108t57 -189q0 -20 12 -35h-100q12 15 12 35q0 228 -293 295v4q32 3 62 12t60.5 27t49 50.5t18.5 75.5q0 69 -46 111t-117 42q-18 0 -50.5 -8
l-36.5 -9v-600q0 -20 12 -35h-100q12 15 12 35z" />
    <glyph glyph-name="S" unicode="S" horiz-adv-x="444" 
d="M347 720v-106q-56 46 -119 46q-45 0 -72.5 -27.5t-27.5 -71.5q0 -26 21.5 -49t53.5 -39t69 -40t69 -49.5t53.5 -69.5t21.5 -98q0 -101 -68 -166.5t-173 -65.5q-15 0 -55 9q-34 9 -56 9q-13 0 -29 -14v128q56 -56 127 -56q78 0 128 40.5t50 115.5q0 45 -21.5 79
t-53.5 53.5l-69 41l-69 40.5t-53.5 52.5t-21.5 77.5q0 73 44.5 120.5t117.5 47.5q12 0 61 -7q47 -9 48 -9q14 0 24 8z" />
    <glyph glyph-name="T" unicode="T" horiz-adv-x="389" 
d="M232 644v-609q0 -20 12 -35h-100q12 15 12 35v609h-113q-31 0 -46 -20v88h394v-88q-15 20 -46 20h-113z" />
    <glyph glyph-name="U" unicode="U" 
d="M136 677v-442q0 -84 43 -133.5t126 -49.5t126 49.5t43 133.5v442q0 20 -12 35h100q-12 -15 -12 -35v-447q0 -104 -67 -175t-178 -71t-178 71t-67 175v447q0 20 -12 35h100q-12 -15 -12 -35z" />
    <glyph glyph-name="V" unicode="V" horiz-adv-x="667" 
d="M348 -16l-332 695q-7 15 -25 33h125q-16 -13 -16 -21q0 -2 18 -41l224 -501h2l208 501q18 39 18 41q0 6 -15 21h120q-18 -18 -25 -33l-300 -695h-2z" />
    <glyph glyph-name="W" unicode="W" horiz-adv-x="889" 
d="M363 651l212 -502h2l200 515q6 16 6 23q0 13 -11 25h123q-21 -14 -36 -49l-279 -679h-2l-128 292l-120 -292h-2l-299 679q-16 36 -36 49h126q-15 -11 -15 -21q0 -4 16 -42l207 -500h2l84 212l-144 319q-9 19 -25 32h122q-2 -2 -6 -5t-5.5 -5t-3 -6t-1.5 -9t13 -36z" />
    <glyph glyph-name="X" unicode="X" horiz-adv-x="556" 
d="M235 385l-165 272q-29 48 -38 55h118q-8 -7 -8 -20q0 -4 18 -38l118 -211l113 211q18 32 18 38q0 13 -7 20h112q-9 -7 -38 -55l-160 -272l210 -342q13 -23 33 -43h-124q11 13 11 22q0 5 -4 12.5t-11 18t-10 16.5l-142 255l-144 -255q-3 -6 -10 -16.5t-11 -18t-4 -12.5
q0 -9 11 -22h-125q20 20 33 43z" />
    <glyph glyph-name="Y" unicode="Y" 
d="M3 712h121q-9 -7 -9 -18q0 -4 16 -28l169 -256l170 256q16 24 16 28q0 11 -9 18h130q-9 -6 -24 -26l-248 -343v-299q0 -20 14 -44h-104q14 24 14 44v299l-230 332q-22 33 -26 37z" />
    <glyph glyph-name="Z" unicode="Z" horiz-adv-x="500" 
d="M-1 0l362 644h-256q-30 0 -57 -16v84h432l-363 -644h314q30 0 57 16v-84h-489z" />
    <glyph glyph-name="bracketleft" unicode="[" horiz-adv-x="278" 
d="M243 712v-60q-14 14 -39 14h-88v-719h88q25 0 39 14v-60h-194q9 16 9 31v749q0 15 -9 31h194z" />
    <glyph glyph-name="backslash" unicode="\" horiz-adv-x="278" 
d="M234 -16l-247 744h62l243 -744h-58z" />
    <glyph glyph-name="bracketright" unicode="]" horiz-adv-x="278" 
d="M35 712h194q-9 -16 -9 -31v-749q0 -15 9 -31h-194v60q14 -14 39 -14h88v719h-88q-25 0 -39 -14v60z" />
    <glyph glyph-name="asciicircum" unicode="^" horiz-adv-x="600" 
d="M111 269h-64l224 443h58l224 -443h-63l-191 376z" />
    <glyph glyph-name="underscore" unicode="_" horiz-adv-x="500" 
d="M500 -125h-500v50h500v-50z" />
    <glyph glyph-name="grave" unicode="`" horiz-adv-x="222" 
d="M-20 700h108l89 -141h-67z" />
    <glyph glyph-name="a" unicode="a" 
d="M306 506q41 1 78 -10t58 -23.5t62 -40.5q2 -1 8 -5l7.5 -5t6 -3.5t6 -3t5 -2.5t5.5 -2t6 -1t7 -1.5t7 -0.5h9q-12 -9 -15 -23t-3 -50v-304q0 -20 20 -31h-90v55l-4 2q-48 -73 -166 -73q-112 0 -193.5 73t-81.5 184q0 112 77 188.5t191 76.5zM483 132v230q-5 3 -37.5 26.5
t-65.5 36.5t-73 13q-80 0 -138.5 -56t-58.5 -134q0 -82 53.5 -139t135.5 -57q67 0 103.5 18t80.5 62z" />
    <glyph glyph-name="b" unicode="b" 
d="M58 161v518q0 21 -20 33h90v-277l4 -2q48 73 166 73q112 0 193.5 -73t81.5 -184q0 -112 -77 -188.5t-191 -76.5q-31 0 -60 8t-44.5 16t-48 28.5t-47.5 28.5q-36 24 -58 28q11 9 11 68zM128 358v-230q5 -3 37.5 -26.5t65.5 -36.5t73 -13q80 0 138.5 56t58.5 134
q0 82 -53.5 139t-135.5 57q-67 0 -103.5 -18t-80.5 -62z" />
    <glyph glyph-name="c" unicode="c" horiz-adv-x="444" 
d="M417 503v-117q-35 30 -59.5 41t-65.5 11q-86 0 -138 -60.5t-52 -136.5q0 -81 54.5 -135t136.5 -54q69 0 124 55v-116l-9 5q-9 6 -11 6l-20 -4q-20 -5 -50 -9.5t-53 -4.5q-94 0 -169 74t-75 185q0 107 73.5 185t177.5 78q29 0 70 -10t43 -10q6 0 23 17z" />
    <glyph glyph-name="d" unicode="d" 
d="M483 435v244q0 20 -18 33h88v-551q0 -59 11 -68q-22 -4 -58 -28q-15 -8 -47.5 -28.5t-48 -28.5t-44.5 -16t-60 -8q-114 0 -191 76.5t-77 188.5q0 111 81.5 184t193.5 73q118 0 166 -73zM483 128v230q-44 44 -80.5 62t-103.5 18q-82 0 -135.5 -57t-53.5 -139
q0 -78 58.5 -134t138.5 -56q40 0 73 13t65.5 36.5t37.5 26.5z" />
    <glyph glyph-name="e" unicode="e" 
d="M586 223h-488q11 -78 69 -124.5t141 -46.5q108 0 157 47v-113q-10 16 -23 17q-4 0 -20.5 -3t-36.5 -7.5t-25 -5.5q-17 -3 -52 -3q-116 0 -199 73.5t-83 186.5q0 115 78.5 188.5t196.5 73.5q117 0 195 -78.5t78 -175.5q0 -10 12 -29zM99 291h403q-18 69 -71.5 108
t-128.5 39q-76 0 -128.5 -38.5t-74.5 -108.5z" />
    <glyph glyph-name="f" unicode="f" horiz-adv-x="278" 
d="M21 414v74h66v55q0 77 53.5 131t106.5 54q17 0 35 8v-80h-10q-50 0 -82.5 -28.5t-32.5 -85.5v-52h125v-76q-10 4 -25 6q-18 2 -27 2h-73v-381q0 -31 18 -41h-106q18 9 18 71v351h-30q-18 0 -36 -8z" />
    <glyph glyph-name="g" unicode="g" 
d="M141 -234v118q17 -24 58.5 -37t78.5 -13q110 0 157 54.5t48 166.5l-4 2q-48 -73 -166 -73q-112 0 -193.5 73t-81.5 184q0 112 77 188.5t191 76.5q31 0 60 -8t44.5 -16t48 -28.5t47.5 -28.5q36 -24 58 -28q-11 -9 -11 -68v-281q0 -90 -33 -154q-31 -59 -89 -93.5
t-126 -34.5q-25 0 -75 8q-48 8 -64 8t-25 -16zM483 132v230q-5 3 -37.5 26.5t-65.5 36.5t-73 13q-80 0 -138.5 -56t-58.5 -134q0 -82 53.5 -139t135.5 -57q67 0 103.5 18t80.5 62z" />
    <glyph glyph-name="h" unicode="h" horiz-adv-x="556" 
d="M128 712v-274q5 5 18 16.5l19 16.5t19.5 13t25.5 12t30.5 7t40.5 3q88 0 152 -64.5t64 -152.5v-230q0 -43 22 -59h-112q13 8 16.5 20t3.5 36v223q0 67 -45 113t-112 46q-28 0 -54 -11t-40 -23.5t-29 -28t-19 -18.5v-322q0 -16 25 -35h-111q16 11 16 49v618q0 35 -16 45
h86z" />
    <glyph glyph-name="i" unicode="i" horiz-adv-x="222" 
d="M164 0h-106q18 9 18 71v374q0 35 -16 45h86v-449q0 -31 18 -41zM111 657q18 0 31.5 -13t13.5 -32t-13.5 -32t-31.5 -13t-31.5 13t-13.5 32t13.5 32t31.5 13z" />
    <glyph glyph-name="j" unicode="j" horiz-adv-x="222" 
d="M-87 -234v87q27 -10 50 -10q59 0 86 43.5t27 111.5v447q0 35 -16 45h86v-513q0 -81 -50 -141.5t-131 -60.5q-29 0 -52 -9zM111 567q-18 0 -31.5 13t-13.5 32t13.5 32t31.5 13t31.5 -13t13.5 -32t-13.5 -32t-31.5 -13z" />
    <glyph glyph-name="k" unicode="k" horiz-adv-x="500" 
d="M344 490h140v-2q-30 -15 -62 -46l-145 -140q63 -5 105.5 -46.5t59 -96t16.5 -118.5q0 -30 20 -41h-108q18 10 18 41q0 114 -51.5 169t-162.5 55h-21l193 199q7 6 7 12q0 8 -9 12v2zM146 0h-106q18 9 18 71v596q0 35 -16 45h86v-671q0 -31 18 -41z" />
    <glyph glyph-name="l" unicode="l" horiz-adv-x="222" 
d="M164 0h-106q18 9 18 71v596q0 35 -16 45h86v-671q0 -31 18 -41z" />
    <glyph glyph-name="m" unicode="m" horiz-adv-x="944" 
d="M68 49v319q0 11 -9 29q27 13 55 34.5t45.5 36.5t51.5 26.5t80 11.5q121 0 178 -91q5 4 26.5 25t30.5 27t30.5 18.5t46.5 16.5t57 4q88 0 152 -64.5t64 -152.5v-230q0 -43 22 -59h-112q13 8 16.5 20t3.5 36v223q0 67 -45 113t-112 46q-23 0 -44 -6.5t-37 -18t-27 -21
t-21.5 -21.5t-12.5 -14v-298q0 -43 22 -59h-112q13 8 16.5 20t3.5 36v223q0 67 -45 113t-112 46q-28 0 -54 -11t-40 -23.5t-29 -28t-19 -18.5v-322q0 -16 25 -35h-111q16 11 16 49z" />
    <glyph glyph-name="n" unicode="n" horiz-adv-x="556" 
d="M58 49v319q0 11 -9 29q36 12 64.5 32t44 36t46.5 28.5t77 12.5q88 0 152 -64.5t64 -152.5v-230q0 -43 22 -59h-112q13 8 16.5 20t3.5 36v223q0 67 -45 113t-112 46q-28 0 -54 -11t-40 -23.5t-29 -28t-19 -18.5v-322q0 -16 25 -35h-111q16 11 16 49z" />
    <glyph glyph-name="o" unicode="o" 
d="M305 -16q-110 0 -190 76t-80 185t80 185t190 76t190 -76t80 -185t-80 -185t-190 -76zM503 245q0 79 -58.5 136t-139.5 57t-139.5 -57t-58.5 -136t58.5 -136t139.5 -57t139.5 57t58.5 136z" />
    <glyph glyph-name="p" unicode="p" 
d="M58 -201v530q0 59 -11 68q22 4 58 28q15 8 47.5 28.5t48 28.5t44.5 16t60 8q114 0 191 -76.5t77 -188.5q0 -111 -81.5 -184t-193.5 -73q-118 0 -166 73l-4 -2v-256q0 -21 20 -33h-110q20 12 20 33zM128 362v-230q44 -44 80.5 -62t103.5 -18q82 0 135.5 57t53.5 139
q0 78 -58.5 134t-138.5 56q-40 0 -73 -13t-65.5 -36.5t-37.5 -26.5z" />
    <glyph glyph-name="q" unicode="q" 
d="M553 329v-530q0 -21 20 -33h-110q20 12 20 33v256l-4 2q-48 -73 -166 -73q-112 0 -193.5 73t-81.5 184q0 112 77 188.5t191 76.5q31 0 60 -8t44.5 -16t48 -28.5t47.5 -28.5q36 -24 58 -28q-11 -9 -11 -68zM483 132v230q-5 3 -37.5 26.5t-65.5 36.5t-73 13
q-80 0 -138.5 -56t-58.5 -134q0 -82 53.5 -139t135.5 -57q67 0 103.5 18t80.5 62z" />
    <glyph glyph-name="r" unicode="r" horiz-adv-x="278" 
d="M278 516v-78h-18q-51 0 -91.5 -34t-40.5 -106v-257q0 -31 18 -41h-106q18 9 18 72v382q0 11 -10 36h75v-65h2q30 81 126 81q14 0 27 10z" />
    <glyph glyph-name="s" unicode="s" horiz-adv-x="333" 
d="M278 504v-101q-42 35 -89 35q-79 0 -79 -63q0 -30 22 -49.5t53.5 -31t63.5 -27t54 -48.5t22 -84q0 -65 -45 -108t-110 -43q-44 0 -84 10q-7 1 -23 5.5t-22 4.5q-11 0 -19 -12h-1v120q55 -60 128 -60q104 0 104 75q0 38 -22 62t-53.5 36.5l-63.5 26.5t-54 44.5t-22 78.5
q0 60 40 95.5t101 35.5q20 0 43 -5q33 -5 34 -5q15 0 22 8z" />
    <glyph glyph-name="t" unicode="t" horiz-adv-x="278" 
d="M74 422h-66l137 190v-122h133v-82q-13 10 -31 12q-11 2 -37 2h-66v-381q0 -31 18 -41h-106q18 9 18 71v351z" />
    <glyph glyph-name="u" unicode="u" horiz-adv-x="556" 
d="M402 490h111q-16 -11 -16 -49v-319q0 -11 9 -29q-24 -14 -52 -36.5l-46 -36.5t-53 -25t-81 -11q-91 0 -153.5 55t-62.5 145v247q0 43 -22 59h112q-13 -8 -16.5 -20t-3.5 -36v-244q0 -64 41.5 -101t108.5 -37q38 0 70.5 15.5t45.5 28.5t29 32q3 4 4 5v322q0 16 -25 35z
" />
    <glyph glyph-name="v" unicode="v" horiz-adv-x="500" 
d="M404 490h109v-2q-23 -16 -43 -56l-218 -448h-2l-220 448q-20 40 -43 56v2h111v-2q-9 -6 -9 -16q0 -1 19 -44l141 -307h2l143 307q19 43 19 44q0 11 -9 16v2z" />
    <glyph glyph-name="w" unicode="w" horiz-adv-x="778" 
d="M392 514l141 -384h2l130 298q16 38 16 44q0 10 -9 18h110q-23 -17 -43 -58l-210 -448h-2l-137 363h-2l-140 -363h-2l-208 448q-20 41 -43 58h113q-9 -8 -9 -18q0 -6 16 -44l126 -298h2l147 384h2z" />
    <glyph glyph-name="x" unicode="x" horiz-adv-x="500" 
d="M356 490h128q-24 -14 -53 -51l-143 -175l173 -213q29 -37 53 -51h-130q9 9 9 18q0 12 -26 44l-120 153l-116 -153q-26 -32 -26 -44q0 -9 9 -18h-128q24 14 53 51l169 214l-133 174q-29 37 -53 51h128q-9 -8 -9 -18q0 -6 26 -44l84 -124l88 124q26 38 26 44q0 10 -9 18z
" />
    <glyph glyph-name="y" unicode="y" horiz-adv-x="500" 
d="M123 -115l89 167l-183 377q-23 45 -44 61h115q-8 -7 -8 -18q0 -13 23 -62l133 -294h2l136 294q23 49 23 62q0 11 -8 18h113q-21 -16 -44 -61l-277 -562q-2 -5 -7 -14t-8 -15t-3 -10q0 -10 6 -17h-112q24 20 54 74z" />
    <glyph glyph-name="z" unicode="z" horiz-adv-x="444" 
d="M428 0h-433l296 426h-174q-51 0 -68 -18v82h373l-308 -426h241q59 0 73 24v-88z" />
    <glyph glyph-name="braceleft" unicode="{" horiz-adv-x="333" 
d="M278 728v-43h-48q-21 0 -31.5 -26.5t-10.5 -64.5v-156q0 -65 -26 -101t-48 -44v-2q22 -8 48 -44t26 -101v-156q0 -38 10.5 -64.5t31.5 -26.5h48v-43h-55q-42 0 -67.5 31.5t-25.5 85.5v157q0 61 -18.5 101t-56.5 40v42q38 0 56.5 40t18.5 101v157q0 54 25.5 85.5
t67.5 31.5h55z" />
    <glyph glyph-name="bar" unicode="|" horiz-adv-x="222" 
d="M83 750h56v-1000h-56v1000z" />
    <glyph glyph-name="braceright" unicode="}" horiz-adv-x="333" 
d="M55 685v43h55q42 0 67.5 -31.5t25.5 -85.5v-157q0 -61 18.5 -101t56.5 -40v-42q-38 0 -56.5 -40t-18.5 -101v-157q0 -54 -25.5 -85.5t-67.5 -31.5h-55v43h48q21 0 31.5 26.5t10.5 64.5v156q0 65 26 101t48 44v2q-22 8 -48 44t-26 101v156q0 38 -10.5 64.5t-31.5 26.5h-48
z" />
    <glyph glyph-name="asciitilde" unicode="~" horiz-adv-x="600" 
d="M495 311l36 -42q-20 -27 -33 -42t-38 -29.5t-54 -14.5q-42 0 -102 33q-62 35 -115 35q-51 0 -84 -72l-36 42q45 86 125 86q39 0 111 -32l21.5 -9.5t23 -10l20 -8t20.5 -6.5t17 -2q19 0 36.5 12t27 24.5t24.5 35.5z" />
    <glyph glyph-name="uni00A0" unicode="&#xa0;" horiz-adv-x="305" 
 />
    <glyph glyph-name="exclamdown" unicode="&#xa1;" horiz-adv-x="278" 
d="M203 -218h-131q23 16 23 44l13 463q0 18 -12 36h83q-12 -18 -12 -36l13 -463q0 -28 23 -44zM135 406q-20 0 -35.5 15t-15.5 36t15.5 36t35.5 15t35.5 -15t15.5 -36t-15.5 -36t-35.5 -15z" />
    <glyph glyph-name="cent" unicode="&#xa2;" 
d="M317 170v380q-72 -13 -115 -70t-43 -125q0 -71 44 -122.5t114 -62.5zM476 605v-105q-49 43 -91 50v-380q50 10 91 51v-109q-13 4 -32 4q-11 0 -59 -11v-37q0 -23 12 -45h-80v77q-90 6 -158 78.5t-68 178.5q0 100 64.5 175.5t161.5 85.5v31q0 24 -12 45h80v-79
q17 -3 40 -9t28 -6q13 0 23 5z" />
    <glyph glyph-name="sterling" unicode="&#xa3;" 
d="M35 319v76h73v141q0 73 59 132.5t152 59.5q13 0 27 -3q3 0 8.5 -1t10 -1.5t8.5 -0.5q22 0 37 6v-90q-43 22 -89 22q-57 0 -100 -34.5t-43 -97.5v-133h97q24 0 47 9v-77h-144v-259h118q80 0 136.5 54.5t60.5 149.5h80q-10 -25 -10 -48q0 -75 -82.5 -149.5t-192.5 -74.5
h-196q16 15 16 35v292h-33q-25 0 -40 -8z" />
    <glyph glyph-name="currency" unicode="&#xa4;" 
d="M51 147l54 57q-53 66 -53 151q0 95 55 153l-56 57l40 40l57 -55q63 54 155 54q86 0 149 -54l56 56l42 -42l-55 -54q53 -60 53 -153q0 -89 -52 -154l53 -56l-40 -40l-54 58q-63 -57 -153 -57q-93 0 -157 57l-54 -58zM300 548q-78 0 -134 -57.5t-56 -134.5t56 -134.5
t134 -57.5t134 57.5t56 134.5t-56 134.5t-134 57.5z" />
    <glyph glyph-name="yen" unicode="&#xa5;" 
d="M345 0h-96q14 24 14 44v214h-155q-24 0 -47 -9v67h202v23l-42 59h-113q-24 0 -47 -9v67h120l-152 219q-22 33 -26 37h117q-9 -12 -9 -18q0 -3 16 -28l173 -264l174 264q16 24 16 28q0 11 -9 18h126q-9 -6 -24 -26l-166 -230h69q24 0 47 9v-67h-158l-44 -57v-25h155
q24 0 47 9v-67h-202v-214q0 -20 14 -44z" />
    <glyph glyph-name="brokenbar" unicode="&#xa6;" horiz-adv-x="222" 
d="M83 675h56v-350h-56v350zM83 175h56v-350h-56v350z" />
    <glyph glyph-name="section" unicode="&#xa7;" horiz-adv-x="556" 
d="M466 554h-86q4 13 4 32q0 33 -30.5 57.5t-70.5 24.5q-50 0 -79.5 -25.5t-29.5 -74.5q0 -37 25.5 -67.5t63.5 -50l82.5 -44t82.5 -48.5t63.5 -64.5t25.5 -91.5q0 -50 -29.5 -88t-81.5 -59q56 -51 56 -124q0 -77 -53 -121t-132 -44q-91 0 -134 47.5t-57 133.5h91
q-5 -12 -5 -35q0 -41 31.5 -63.5t74.5 -22.5q48 0 80 27.5t32 74.5q0 40 -36.5 76t-88 64.5l-103 58.5t-88 72.5t-36.5 93.5q0 112 111 159q-47 42 -47 112q0 74 49.5 119t123.5 45q89 0 130.5 -41t60.5 -133zM98 318q0 -32 16 -54t47 -45q29 -21 113.5 -76t97.5 -55
q25 0 55 34.5t30 73.5q0 15 -3.5 28t-12 24.5t-15 19.5t-21 18l-21.5 14.5t-25 15l-23 13.5q-4 2 -45.5 29t-71.5 43.5t-42 16.5q-19 0 -49 -31.5t-30 -68.5z" />
    <glyph glyph-name="dieresis" unicode="&#xa8;" horiz-adv-x="222" 
d="M182 658q19 0 32.5 -13.5t13.5 -32.5t-13.5 -32.5t-32.5 -13.5t-32.5 13.5t-13.5 32.5t13.5 32.5t32.5 13.5zM41 658q19 0 32.5 -13.5t13.5 -32.5t-13.5 -32.5t-32.5 -13.5t-32.5 13.5t-13.5 32.5t13.5 32.5t32.5 13.5z" />
    <glyph glyph-name="copyright" unicode="&#xa9;" horiz-adv-x="800" 
d="M401 728q153 0 263 -108.5t110 -262.5q0 -156 -110 -264.5t-263 -108.5q-155 0 -265 108.5t-110 264.5q0 155 110 263t265 108zM714 357q0 135 -90 227.5t-223 92.5q-134 0 -224.5 -92.5t-90.5 -227.5q0 -137 90.5 -229.5t224.5 -92.5q133 0 223 92.5t90 229.5zM540 282
h58q-15 -72 -65.5 -115t-120.5 -43q-100 0 -161.5 66t-61.5 167q0 102 59.5 167t160.5 65q75 0 127 -41t62 -114h-58q-10 45 -44.5 73.5t-85.5 28.5q-75 0 -117 -50.5t-42 -127.5q0 -74 44.5 -127.5t116.5 -53.5q50 0 84.5 29.5t43.5 75.5z" />
    <glyph glyph-name="ordfeminine" unicode="&#xaa;" horiz-adv-x="367" 
d="M346 622v-179q0 -12 13 -18h-69v32l-3 2q-18 -44 -97 -44q-73 0 -126 43.5t-53 110.5t50 113t124 46q20 0 39 -5t29 -10t31 -17t31 -17q24 -14 38 -16q-7 -6 -7 -41zM290 514v118q-41 45 -94 45q-51 0 -90 -32t-39 -72q0 -42 35.5 -74.5t87.5 -32.5q38 0 59.5 11t40.5 37
z" />
    <glyph glyph-name="guillemotleft" unicode="&#xab;" horiz-adv-x="500" 
d="M353 91l-123 154l120 154h84l-121 -154l123 -154h-83zM186 91l-123 154l120 154h84l-121 -154l123 -154h-83z" />
    <glyph glyph-name="logicalnot" unicode="&#xac;" horiz-adv-x="600" 
d="M488 105v208h-432v56h488v-264h-56z" />
    <glyph glyph-name="uni00AD" unicode="&#xad;" horiz-adv-x="333" 
d="M43 198v79h181q30 0 66 18v-81h-188q-39 0 -59 -16z" />
    <glyph glyph-name="registered" unicode="&#xae;" horiz-adv-x="800" 
d="M401 728q153 0 263 -108.5t110 -262.5q0 -156 -110 -264.5t-263 -108.5q-155 0 -265 108.5t-110 264.5q0 155 110 263t265 108zM714 357q0 135 -90 227.5t-223 92.5q-134 0 -224.5 -92.5t-90.5 -227.5q0 -137 90.5 -229.5t224.5 -92.5q133 0 223 92.5t90 229.5zM316 331
v-194h-56v438h168q146 0 146 -122q0 -103 -111 -122l128 -194h-67l-121 194h-87zM316 379h78q23 0 37 1t32.5 5t29 11.5t18 22.5t7.5 36q0 72 -102 72h-100v-148z" />
    <glyph glyph-name="macron" unicode="&#xaf;" horiz-adv-x="222" 
d="M267 593h-311v57h311v-57z" />
    <glyph glyph-name="degree" unicode="&#xb0;" horiz-adv-x="400" 
d="M200 690q-40 0 -69.5 -31.5t-29.5 -73.5t29.5 -73.5t69.5 -31.5t69.5 31.5t29.5 73.5t-29.5 73.5t-69.5 31.5zM200 728q60 0 101.5 -41.5t41.5 -101.5t-41.5 -101.5t-101.5 -41.5t-101.5 41.5t-41.5 101.5t41.5 101.5t101.5 41.5z" />
    <glyph glyph-name="plusminus" unicode="&#xb1;" horiz-adv-x="600" 
d="M272 320v170h56v-170h216v-56h-216v-170h-56v170h-216v56h216zM56 0v56h488v-56h-488z" />
    <glyph glyph-name="twosuperior" unicode="&#xb2;" horiz-adv-x="366" 
d="M69 571h-62q6 18 6 25q0 41 50 86.5t122 45.5q65 0 112 -41.5t47 -98.5q0 -42 -17 -68t-57 -61l-131 -117h161q21 0 40 7v-58h-329l199 186q2 2 10.5 9.5t11 10t10 9.5t10.5 11t9.5 10.5t9 11.5t7 11.5t6 12t3 12.5t1.5 13q0 38 -34 63.5t-78 25.5q-47 0 -77 -33t-30 -73
z" />
    <glyph glyph-name="threesuperior" unicode="&#xb3;" horiz-adv-x="366" 
d="M115 606h-59q5 9 9 31q7 40 46 65.5t85 25.5q55 0 90.5 -32t35.5 -82q0 -37 -31 -65q35 -12 55 -44t20 -68q0 -66 -49.5 -111t-124.5 -45q-72 0 -123 46.5t-51 104.5q0 11 -4 18h60q0 -47 33 -82.5t85 -35.5q51 0 84.5 32t33.5 73q0 75 -111 105q33 10 50 25.5t17 44.5
q0 24 -19.5 44.5t-50.5 20.5q-32 0 -56.5 -22t-24.5 -49z" />
    <glyph glyph-name="acute" unicode="&#xb4;" horiz-adv-x="222" 
d="M243 700l-130 -141h-67l89 141h108z" />
    <glyph glyph-name="mu" unicode="&#xb5;" horiz-adv-x="556" 
d="M58 -175v606q0 43 -22 59h112q-13 -8 -16.5 -20t-3.5 -36v-234q0 -77 42.5 -112.5t107.5 -35.5q38 0 70.5 15.5t45.5 28.5t29 32q3 4 4 5v322q0 16 -25 35h111q-16 -11 -16 -49v-319q0 -11 9 -29q-24 -14 -52 -36.5l-46 -36.5t-53 -25t-81 -11q-92 0 -146 50v-268h-92
q22 16 22 59z" />
    <glyph glyph-name="paragraph" unicode="&#xb6;" horiz-adv-x="600" 
d="M266 -179v509q-90 0 -149.5 55t-59.5 133q0 95 59 144.5t166 49.5h228v-891h-58v842h-128v-842h-58z" />
    <glyph glyph-name="periodcentered" unicode="&#xb7;" horiz-adv-x="305" 
d="M153 296q20 0 35.5 -15t15.5 -36t-15.5 -36t-35.5 -15t-35.5 15t-15.5 36t15.5 36t35.5 15z" />
    <glyph glyph-name="cedilla" unicode="&#xb8;" horiz-adv-x="222" 
d="M37 -105l-17 19l63 86h48l-47 -62q24 4 35 4q34 0 57.5 -20t23.5 -54q0 -46 -34 -69t-83 -23q-47 0 -97 21l16 40q35 -15 65 -15q57 0 57 40q0 41 -49 41q-22 0 -38 -8z" />
    <glyph glyph-name="onesuperior" unicode="&#xb9;" horiz-adv-x="366" 
d="M83 520l-40 24q13 7 23 18l174 166v-412q0 -20 9 -25h-79q14 7 14 43v278z" />
    <glyph glyph-name="ordmasculine" unicode="&#xba;" horiz-adv-x="367" 
d="M183 415q-72 0 -123.5 45.5t-51.5 110.5q0 66 51.5 111.5t123.5 45.5t124 -46t52 -111t-52 -110.5t-124 -45.5zM183 466q53 0 86.5 29t33.5 76q0 48 -33.5 77t-86.5 29t-86 -29t-33 -77q0 -47 33 -76t86 -29z" />
    <glyph glyph-name="guillemotright" unicode="&#xbb;" horiz-adv-x="500" 
d="M64 91l123 154l-121 154h84l120 -154l-123 -154h-83zM231 91l123 154l-121 154h84l120 -154l-123 -154h-83z" />
    <glyph glyph-name="onequarter" unicode="&#xbc;" horiz-adv-x="916" 
d="M723 67h-209l-53 56q2 2 11.5 9t13.5 12l254 293h38v-319h32q14 0 32 9v-60h-64v-24q0 -21 6 -43h-67q6 22 6 43v24zM529 118h194v224h-2zM624 728h83q-21 -19 -44 -61l-376 -643q-13 -24 -13 -28q0 -6 6 -12h-74q15 14 32 44l364 627q26 45 26 56q0 12 -4 17zM83 520
l-40 24q13 7 23 18l174 166v-412q0 -20 9 -25h-79q14 7 14 43v278z" />
    <glyph glyph-name="onehalf" unicode="&#xbd;" horiz-adv-x="916" 
d="M624 728h83q-21 -19 -44 -61l-376 -643q-13 -24 -13 -28q0 -6 6 -12h-74q15 14 32 44l364 627q26 45 26 56q0 12 -4 17zM83 520l-40 24q13 7 23 18l174 166v-412q0 -20 9 -25h-79q14 7 14 43v278zM619 280h-62q6 18 6 25q0 41 50 86.5t122 45.5q65 0 112 -41.5t47 -98.5
q0 -42 -17 -68t-57 -61l-131 -117h161q21 0 40 7v-58h-329l199 186q2 2 10 9.5t11 10t10.5 9.5t10.5 11t9.5 10.5t9 11.5t7 11.5t6 12t3 12.5t1.5 13q0 38 -34 63.5t-78 25.5q-47 0 -77 -33t-30 -73z" />
    <glyph glyph-name="threequarters" unicode="&#xbe;" horiz-adv-x="916" 
d="M723 67h-209l-53 56q2 2 11.5 9t13.5 12l254 293h38v-319h32q14 0 32 9v-60h-64v-24q0 -21 6 -43h-67q6 22 6 43v24zM529 118h194v224h-2zM624 728h83q-21 -19 -44 -61l-376 -643q-13 -24 -13 -28q0 -6 6 -12h-74q15 14 32 44l364 627q26 45 26 56q0 12 -4 17zM115 606
h-59q5 9 9 31q7 40 46 65.5t85 25.5q55 0 90.5 -32t35.5 -82q0 -37 -31 -65q35 -12 55 -44t20 -68q0 -66 -49.5 -111t-124.5 -45q-72 0 -123 46.5t-51 104.5q0 11 -4 18h60q0 -47 33 -82.5t85 -35.5q51 0 84.5 32t33.5 73q0 75 -111 105q33 10 50 25.5t17 44.5
q0 24 -19.5 44.5t-50.5 20.5q-32 0 -56.5 -22t-24.5 -49z" />
    <glyph glyph-name="questiondown" unicode="&#xbf;" horiz-adv-x="444" 
d="M397 -119v-115q-12 9 -29 9q-10 0 -35 -4.5t-47 -4.5q-104 0 -171.5 69t-67.5 166q0 84 58.5 148t124.5 64q8 0 20 -4v71q0 22 -10 45h88q-10 -23 -10 -45v-144q-24 9 -59 9q-71 0 -107.5 -44.5t-36.5 -109.5q0 -69 49.5 -113t119.5 -44q60 0 113 47zM286 406
q-20 0 -35.5 15t-15.5 36t15.5 36t35.5 15t35.5 -15t15.5 -36t-15.5 -36t-35.5 -15z" />
    <glyph glyph-name="Agrave" unicode="&#xc0;" horiz-adv-x="667" 
d="M199 263h256l-129 303h-2zM486 195h-308l-64 -155q-9 -22 -9 -24q0 -5 8 -16h-112q12 8 18 21l302 707h2l317 -689q13 -25 25 -39h-114q8 11 8 16q0 2 -9 24zM194 897h108l89 -141h-67z" />
    <glyph glyph-name="Aacute" unicode="&#xc1;" horiz-adv-x="667" 
d="M199 263h256l-129 303h-2zM486 195h-308l-64 -155q-9 -22 -9 -24q0 -5 8 -16h-112q12 8 18 21l302 707h2l317 -689q13 -25 25 -39h-114q8 11 8 16q0 2 -9 24zM457 897l-130 -141h-67l89 141h108z" />
    <glyph glyph-name="Acircumflex" unicode="&#xc2;" horiz-adv-x="667" 
d="M199 263h256l-129 303h-2zM486 195h-308l-64 -155q-9 -22 -9 -24q0 -5 8 -16h-112q12 8 18 21l302 707h2l317 -689q13 -25 25 -39h-114q8 11 8 16q0 2 -9 24zM180 756l99 141h92l100 -141h-80l-66 94l-66 -94h-79z" />
    <glyph glyph-name="Atilde" unicode="&#xc3;" horiz-adv-x="667" 
d="M199 263h256l-129 303h-2zM486 195h-308l-64 -155q-9 -22 -9 -24q0 -5 8 -16h-112q12 8 18 21l302 707h2l317 -689q13 -25 25 -39h-114q8 11 8 16q0 2 -9 24zM444 881h51q-3 -41 -30.5 -75t-67.5 -34q-29 0 -78 19t-75 19q-15 0 -27.5 -14.5t-14.5 -30.5h-47q3 46 31 77
t73 31q34 0 75 -18q44 -19 63 -19q42 0 47 45z" />
    <glyph glyph-name="Adieresis" unicode="&#xc4;" horiz-adv-x="667" 
d="M199 263h256l-129 303h-2zM486 195h-308l-64 -155q-9 -22 -9 -24q0 -5 8 -16h-112q12 8 18 21l302 707h2l317 -689q13 -25 25 -39h-114q8 11 8 16q0 2 -9 24zM396 855q19 0 32.5 -13.5t13.5 -32.5t-13.5 -32.5t-32.5 -13.5t-32.5 13.5t-13.5 32.5t13.5 32.5t32.5 13.5z
M255 855q19 0 32.5 -13.5t13.5 -32.5t-13.5 -32.5t-32.5 -13.5t-32.5 13.5t-13.5 32.5t13.5 32.5t32.5 13.5z" />
    <glyph glyph-name="Aring" unicode="&#xc5;" horiz-adv-x="667" 
d="M199 263h256l-129 303h-2zM486 195h-308l-64 -155q-9 -22 -9 -24q0 -5 8 -16h-112q12 8 18 21l302 707h2l317 -689q13 -25 25 -39h-114q8 11 8 16q0 2 -9 24zM325 916q-24 0 -41 -17.5t-17 -40.5t17 -40.5t41 -17.5t41 17.5t17 40.5t-17 40.5t-41 17.5zM325 960
q42 0 72 -30.5t30 -71.5t-30 -71.5t-72 -30.5t-72 30.5t-30 71.5t30 71.5t72 30.5z" />
    <glyph glyph-name="AE" unicode="&#xc6;" horiz-adv-x="944" 
d="M478 712h413v-75q-25 7 -54 7h-236v-253h142q47 0 67 12v-92q-20 12 -67 12h-142v-255h236q29 0 54 7v-75h-378q12 15 12 35v165h-294l-96 -155q-16 -26 -16 -32t8 -13h-120zM525 268v385h-2l-251 -385h253z" />
    <glyph glyph-name="Ccedilla" unicode="&#xc7;" 
d="M583 714v-104q-66 42 -168 42q-127 0 -216.5 -84t-89.5 -212t89.5 -212t216.5 -84q101 0 166 42v-107q-12 9 -31 9q-15 0 -56 -8t-69 -10l-36 -48q24 4 35 4q34 0 57.5 -20t23.5 -54q0 -46 -34 -69t-83 -23q-47 0 -97 21l16 40q35 -15 65 -15q57 0 57 40q0 41 -49 41
q-22 0 -38 -8l-17 19l52 71q-146 9 -245 120t-99 256q0 106 54.5 191t144 130.5t194.5 45.5q36 0 78 -10q40 -10 56 -10t23 6z" />
    <glyph glyph-name="Egrave" unicode="&#xc8;" horiz-adv-x="500" 
d="M466 0h-396q12 15 12 35v642q0 20 -12 35h396v-75q-25 7 -54 7h-254v-253h160q47 0 67 12v-92q-20 12 -67 12h-160v-255h254q29 0 54 7v-75zM133 897h108l89 -141h-67z" />
    <glyph glyph-name="Eacute" unicode="&#xc9;" horiz-adv-x="500" 
d="M466 0h-396q12 15 12 35v642q0 20 -12 35h396v-75q-25 7 -54 7h-254v-253h160q47 0 67 12v-92q-20 12 -67 12h-160v-255h254q29 0 54 7v-75zM396 897l-130 -141h-67l89 141h108z" />
    <glyph glyph-name="Ecircumflex" unicode="&#xca;" horiz-adv-x="500" 
d="M466 0h-396q12 15 12 35v642q0 20 -12 35h396v-75q-25 7 -54 7h-254v-253h160q47 0 67 12v-92q-20 12 -67 12h-160v-255h254q29 0 54 7v-75zM119 756l99 141h92l100 -141h-80l-66 94l-66 -94h-79z" />
    <glyph glyph-name="Edieresis" unicode="&#xcb;" horiz-adv-x="500" 
d="M466 0h-396q12 15 12 35v642q0 20 -12 35h396v-75q-25 7 -54 7h-254v-253h160q47 0 67 12v-92q-20 12 -67 12h-160v-255h254q29 0 54 7v-75zM335 855q19 0 32.5 -13.5t13.5 -32.5t-13.5 -32.5t-32.5 -13.5t-32.5 13.5t-13.5 32.5t13.5 32.5t32.5 13.5zM194 855
q19 0 32.5 -13.5t13.5 -32.5t-13.5 -32.5t-32.5 -13.5t-32.5 13.5t-13.5 32.5t13.5 32.5t32.5 13.5z" />
    <glyph glyph-name="Igrave" unicode="&#xcc;" horiz-adv-x="222" 
d="M149 677v-642q0 -20 12 -35h-100q12 15 12 35v642q0 20 -12 35h100q-12 -15 -12 -35zM-25 897h108l89 -141h-67z" />
    <glyph glyph-name="Iacute" unicode="&#xcd;" horiz-adv-x="222" 
d="M149 677v-642q0 -20 12 -35h-100q12 15 12 35v642q0 20 -12 35h100q-12 -15 -12 -35zM238 897l-130 -141h-67l89 141h108z" />
    <glyph glyph-name="Icircumflex" unicode="&#xce;" horiz-adv-x="222" 
d="M149 677v-642q0 -20 12 -35h-100q12 15 12 35v642q0 20 -12 35h100q-12 -15 -12 -35zM-39 756l99 141h92l100 -141h-80l-66 94l-66 -94h-79z" />
    <glyph glyph-name="Idieresis" unicode="&#xcf;" horiz-adv-x="222" 
d="M149 677v-642q0 -20 12 -35h-100q12 15 12 35v642q0 20 -12 35h100q-12 -15 -12 -35zM177 855q19 0 32.5 -13.5t13.5 -32.5t-13.5 -32.5t-32.5 -13.5t-32.5 13.5t-13.5 32.5t13.5 32.5t32.5 13.5zM36 855q19 0 32.5 -13.5t13.5 -32.5t-13.5 -32.5t-32.5 -13.5t-32.5 13.5
t-13.5 32.5t13.5 32.5t32.5 13.5z" />
    <glyph glyph-name="Eth" unicode="&#xd0;" horiz-adv-x="667" 
d="M380 411v-92q-20 12 -67 12h-161v-263h85q130 0 222.5 87t92.5 216q0 122 -86 205.5t-209 83.5q-22 0 -58.5 -7.5t-46.5 -7.5v-246h161q47 0 67 12zM9 319v80h67v329q10 -8 19 -12q14 -4 23 -4q4 0 69 9q68 7 86 7q151 -6 253 -108t102 -252q0 -155 -109.5 -261.5
t-291.5 -106.5h-163q12 15 12 35v296q-47 0 -67 -12z" />
    <glyph glyph-name="Ntilde" unicode="&#xd1;" horiz-adv-x="667" 
d="M158 534v-499q0 -20 12 -35h-100q12 15 12 35v715h2l424 -556h1v483q0 20 -12 35h100q-12 -15 -12 -35v-693h-2l-423 552zM444 881h51q-3 -41 -30.5 -75t-67.5 -34q-29 0 -78 19t-75 19q-15 0 -27.5 -14.5t-14.5 -30.5h-47q3 46 31 77t73 31q34 0 75 -18q44 -19 63 -19
q42 0 47 45z" />
    <glyph glyph-name="Ograve" unicode="&#xd2;" horiz-adv-x="833" 
d="M416 652q-125 0 -213.5 -87t-88.5 -209q0 -123 88 -209.5t214 -86.5t214 86.5t88 209.5q0 122 -88.5 209t-213.5 87zM416 728q157 0 267.5 -109t110.5 -263q0 -153 -110.5 -262.5t-267.5 -109.5t-267.5 109.5t-110.5 262.5q0 154 110.5 263t267.5 109zM286 897h108
l89 -141h-67z" />
    <glyph glyph-name="Oacute" unicode="&#xd3;" horiz-adv-x="833" 
d="M416 652q-125 0 -213.5 -87t-88.5 -209q0 -123 88 -209.5t214 -86.5t214 86.5t88 209.5q0 122 -88.5 209t-213.5 87zM416 728q157 0 267.5 -109t110.5 -263q0 -153 -110.5 -262.5t-267.5 -109.5t-267.5 109.5t-110.5 262.5q0 154 110.5 263t267.5 109zM549 897l-130 -141
h-67l89 141h108z" />
    <glyph glyph-name="Ocircumflex" unicode="&#xd4;" horiz-adv-x="833" 
d="M416 652q-125 0 -213.5 -87t-88.5 -209q0 -123 88 -209.5t214 -86.5t214 86.5t88 209.5q0 122 -88.5 209t-213.5 87zM416 728q157 0 267.5 -109t110.5 -263q0 -153 -110.5 -262.5t-267.5 -109.5t-267.5 109.5t-110.5 262.5q0 154 110.5 263t267.5 109zM272 756l99 141h92
l100 -141h-80l-66 94l-66 -94h-79z" />
    <glyph glyph-name="Otilde" unicode="&#xd5;" horiz-adv-x="833" 
d="M416 652q-125 0 -213.5 -87t-88.5 -209q0 -123 88 -209.5t214 -86.5t214 86.5t88 209.5q0 122 -88.5 209t-213.5 87zM416 728q157 0 267.5 -109t110.5 -263q0 -153 -110.5 -262.5t-267.5 -109.5t-267.5 109.5t-110.5 262.5q0 154 110.5 263t267.5 109zM536 881h51
q-3 -41 -30.5 -75t-67.5 -34q-29 0 -78 19t-75 19q-15 0 -27.5 -14.5t-14.5 -30.5h-47q3 46 31 77t73 31q34 0 75 -18q44 -19 63 -19q42 0 47 45z" />
    <glyph glyph-name="Odieresis" unicode="&#xd6;" horiz-adv-x="833" 
d="M416 652q-125 0 -213.5 -87t-88.5 -209q0 -123 88 -209.5t214 -86.5t214 86.5t88 209.5q0 122 -88.5 209t-213.5 87zM416 728q157 0 267.5 -109t110.5 -263q0 -153 -110.5 -262.5t-267.5 -109.5t-267.5 109.5t-110.5 262.5q0 154 110.5 263t267.5 109zM488 855
q19 0 32.5 -13.5t13.5 -32.5t-13.5 -32.5t-32.5 -13.5t-32.5 13.5t-13.5 32.5t13.5 32.5t32.5 13.5zM347 855q19 0 32.5 -13.5t13.5 -32.5t-13.5 -32.5t-32.5 -13.5t-32.5 13.5t-13.5 32.5t13.5 32.5t32.5 13.5z" />
    <glyph glyph-name="multiply" unicode="&#xd7;" horiz-adv-x="600" 
d="M260 245l-204 202l42 39l202 -201l204 205l40 -40l-205 -205l205 -205l-38 -40l-206 205l-207 -205l-37 41z" />
    <glyph glyph-name="Oslash" unicode="&#xd8;" horiz-adv-x="833" 
d="M186 164l413 427q-81 61 -183 61q-125 0 -213.5 -87t-88.5 -209q0 -110 72 -192zM177 69l-83 -87h-85l124 128q-95 105 -95 246q0 154 110.5 263t267.5 109q135 0 236 -82l82 85h85l-122 -126q97 -105 97 -249q0 -153 -110.5 -262.5t-267.5 -109.5q-136 0 -239 85z
M644 550l-414 -427q79 -63 186 -63q126 0 214 86.5t88 209.5q0 110 -74 194z" />
    <glyph glyph-name="Ugrave" unicode="&#xd9;" 
d="M136 677v-442q0 -84 43 -133.5t126 -49.5t126 49.5t43 133.5v442q0 20 -12 35h100q-12 -15 -12 -35v-447q0 -104 -67 -175t-178 -71t-178 71t-67 175v447q0 20 -12 35h100q-12 -15 -12 -35zM175 897h108l89 -141h-67z" />
    <glyph glyph-name="Uacute" unicode="&#xda;" 
d="M136 677v-442q0 -84 43 -133.5t126 -49.5t126 49.5t43 133.5v442q0 20 -12 35h100q-12 -15 -12 -35v-447q0 -104 -67 -175t-178 -71t-178 71t-67 175v447q0 20 -12 35h100q-12 -15 -12 -35zM438 897l-130 -141h-67l89 141h108z" />
    <glyph glyph-name="Ucircumflex" unicode="&#xdb;" 
d="M136 677v-442q0 -84 43 -133.5t126 -49.5t126 49.5t43 133.5v442q0 20 -12 35h100q-12 -15 -12 -35v-447q0 -104 -67 -175t-178 -71t-178 71t-67 175v447q0 20 -12 35h100q-12 -15 -12 -35zM161 756l99 141h92l100 -141h-80l-66 94l-66 -94h-79z" />
    <glyph glyph-name="Udieresis" unicode="&#xdc;" 
d="M136 677v-442q0 -84 43 -133.5t126 -49.5t126 49.5t43 133.5v442q0 20 -12 35h100q-12 -15 -12 -35v-447q0 -104 -67 -175t-178 -71t-178 71t-67 175v447q0 20 -12 35h100q-12 -15 -12 -35zM377 855q19 0 32.5 -13.5t13.5 -32.5t-13.5 -32.5t-32.5 -13.5t-32.5 13.5
t-13.5 32.5t13.5 32.5t32.5 13.5zM236 855q19 0 32.5 -13.5t13.5 -32.5t-13.5 -32.5t-32.5 -13.5t-32.5 13.5t-13.5 32.5t13.5 32.5t32.5 13.5z" />
    <glyph glyph-name="Yacute" unicode="&#xdd;" 
d="M3 712h121q-9 -7 -9 -18q0 -4 16 -28l169 -256l170 256q16 24 16 28q0 11 -9 18h130q-9 -6 -24 -26l-248 -343v-299q0 -20 14 -44h-104q14 24 14 44v299l-230 332q-22 33 -26 37zM438 897l-130 -141h-67l89 141h108z" />
    <glyph glyph-name="Thorn" unicode="&#xde;" horiz-adv-x="500" 
d="M147 516v-281q2 -1 10 -4.5t10.5 -4.5t9.5 -4t10.5 -4l10.5 -3t12 -2.5t12 -1.5t14.5 -1.5t16.5 -0.5q73 0 116 43.5t43 117.5q0 72 -42 117t-118 45q-18 0 -58 -8t-47 -8zM159 0h-100q12 15 12 35v642q0 20 -12 35h100q-12 -15 -12 -35v-88q7 1 31 7t43 9t37 3
q99 0 164.5 -73t65.5 -174q0 -92 -64.5 -160t-153.5 -68q-57 0 -123 35v-133q0 -20 12 -35z" />
    <glyph glyph-name="germandbls" unicode="&#xdf;" horiz-adv-x="556" 
d="M116 0h-78q8 27 8 69v449q0 94 60.5 152t156.5 58q92 0 155 -54t63 -143q0 -69 -56 -123q109 -57 109 -184q0 -105 -70 -172.5t-177 -67.5q-62 0 -104 25v77q45 -34 105 -34q77 0 125.5 49t48.5 125q0 138 -163 172q51 10 80.5 46t29.5 87q0 59 -39.5 94t-100.5 35
q-153 0 -153 -146v-514z" />
    <glyph glyph-name="agrave" unicode="&#xe0;" 
d="M306 506q41 1 78 -10t58 -23.5t62 -40.5q2 -1 8 -5l7.5 -5t6 -3.5t6 -3t5 -2.5t5.5 -2t6 -1t7 -1.5t7 -0.5h9q-12 -9 -15 -23t-3 -50v-304q0 -20 20 -31h-90v55l-4 2q-48 -73 -166 -73q-112 0 -193.5 73t-81.5 184q0 112 77 188.5t191 76.5zM483 132v230q-5 3 -37.5 26.5
t-65.5 36.5t-73 13q-80 0 -138.5 -56t-58.5 -134q0 -82 53.5 -139t135.5 -57q67 0 103.5 18t80.5 62zM194 700h108l89 -141h-67z" />
    <glyph glyph-name="aacute" unicode="&#xe1;" 
d="M306 506q41 1 78 -10t58 -23.5t62 -40.5q2 -1 8 -5l7.5 -5t6 -3.5t6 -3t5 -2.5t5.5 -2t6 -1t7 -1.5t7 -0.5h9q-12 -9 -15 -23t-3 -50v-304q0 -20 20 -31h-90v55l-4 2q-48 -73 -166 -73q-112 0 -193.5 73t-81.5 184q0 112 77 188.5t191 76.5zM483 132v230q-5 3 -37.5 26.5
t-65.5 36.5t-73 13q-80 0 -138.5 -56t-58.5 -134q0 -82 53.5 -139t135.5 -57q67 0 103.5 18t80.5 62zM457 700l-130 -141h-67l89 141h108z" />
    <glyph glyph-name="acircumflex" unicode="&#xe2;" 
d="M306 506q41 1 78 -10t58 -23.5t62 -40.5q2 -1 8 -5l7.5 -5t6 -3.5t6 -3t5 -2.5t5.5 -2t6 -1t7 -1.5t7 -0.5h9q-12 -9 -15 -23t-3 -50v-304q0 -20 20 -31h-90v55l-4 2q-48 -73 -166 -73q-112 0 -193.5 73t-81.5 184q0 112 77 188.5t191 76.5zM483 132v230q-5 3 -37.5 26.5
t-65.5 36.5t-73 13q-80 0 -138.5 -56t-58.5 -134q0 -82 53.5 -139t135.5 -57q67 0 103.5 18t80.5 62zM180 559l99 141h92l100 -141h-80l-66 94l-66 -94h-79z" />
    <glyph glyph-name="atilde" unicode="&#xe3;" 
d="M306 506q41 1 78 -10t58 -23.5t62 -40.5q2 -1 8 -5l7.5 -5t6 -3.5t6 -3t5 -2.5t5.5 -2t6 -1t7 -1.5t7 -0.5h9q-12 -9 -15 -23t-3 -50v-304q0 -20 20 -31h-90v55l-4 2q-48 -73 -166 -73q-112 0 -193.5 73t-81.5 184q0 112 77 188.5t191 76.5zM483 132v230q-5 3 -37.5 26.5
t-65.5 36.5t-73 13q-80 0 -138.5 -56t-58.5 -134q0 -82 53.5 -139t135.5 -57q67 0 103.5 18t80.5 62zM444 684h51q-3 -41 -30.5 -75t-67.5 -34q-29 0 -78 19t-75 19q-15 0 -27.5 -14.5t-14.5 -30.5h-47q3 46 31 77t73 31q34 0 75 -18q44 -19 63 -19q42 0 47 45z" />
    <glyph glyph-name="adieresis" unicode="&#xe4;" 
d="M306 506q41 1 78 -10t58 -23.5t62 -40.5q2 -1 8 -5l7.5 -5t6 -3.5t6 -3t5 -2.5t5.5 -2t6 -1t7 -1.5t7 -0.5h9q-12 -9 -15 -23t-3 -50v-304q0 -20 20 -31h-90v55l-4 2q-48 -73 -166 -73q-112 0 -193.5 73t-81.5 184q0 112 77 188.5t191 76.5zM483 132v230q-5 3 -37.5 26.5
t-65.5 36.5t-73 13q-80 0 -138.5 -56t-58.5 -134q0 -82 53.5 -139t135.5 -57q67 0 103.5 18t80.5 62zM396 658q19 0 32.5 -13.5t13.5 -32.5t-13.5 -32.5t-32.5 -13.5t-32.5 13.5t-13.5 32.5t13.5 32.5t32.5 13.5zM255 658q19 0 32.5 -13.5t13.5 -32.5t-13.5 -32.5
t-32.5 -13.5t-32.5 13.5t-13.5 32.5t13.5 32.5t32.5 13.5z" />
    <glyph glyph-name="aring" unicode="&#xe5;" 
d="M306 506q41 1 78 -10t58 -23.5t62 -40.5q2 -1 8 -5l7.5 -5t6 -3.5t6 -3t5 -2.5t5.5 -2t6 -1t7 -1.5t7 -0.5h9q-12 -9 -15 -23t-3 -50v-304q0 -20 20 -31h-90v55l-4 2q-48 -73 -166 -73q-112 0 -193.5 73t-81.5 184q0 112 77 188.5t191 76.5zM483 132v230q-5 3 -37.5 26.5
t-65.5 36.5t-73 13q-80 0 -138.5 -56t-58.5 -134q0 -82 53.5 -139t135.5 -57q67 0 103.5 18t80.5 62zM325 719q-24 0 -41 -17.5t-17 -40.5t17 -40.5t41 -17.5t41 17.5t17 40.5t-17 40.5t-41 17.5zM325 763q42 0 72 -30.5t30 -71.5t-30 -71.5t-72 -30.5t-72 30.5t-30 71.5
t30 71.5t72 30.5z" />
    <glyph glyph-name="ae" unicode="&#xe6;" horiz-adv-x="944" 
d="M107 181q0 -129 155 -129q80 0 160 83q-23 50 -20 93q-59 66 -157 66q-56 0 -97 -32.5t-41 -80.5zM475 291h373q-13 65 -66 106t-123 41q-143 0 -184 -147zM924 223h-445q7 -78 65 -124.5t139 -46.5q68 0 137 48v-114q-19 12 -38 12q-2 0 -26 -4.5t-32 -5.5
q-38 -4 -56 -4q-62 0 -120.5 24.5t-92.5 71.5q-77 -96 -206 -96q-97 0 -155.5 50t-58.5 145q0 89 63 136t155 47q40 0 83 -16t70 -43v48q0 31 -26 52t-57.5 28t-63.5 7q-94 0 -149 -39v102q8 -7 13 -9q6 -3 15 -3t54 9q48 8 74 8q60 0 109 -23.5t75 -71.5q48 50 98.5 72.5
t118.5 22.5q121 0 189 -82.5t68 -200.5z" />
    <glyph glyph-name="ccedilla" unicode="&#xe7;" horiz-adv-x="444" 
d="M417 503v-117q-35 30 -59.5 41t-65.5 11q-86 0 -138 -60.5t-52 -136.5q0 -81 54.5 -135t136.5 -54q69 0 124 55v-116l-9 5q-9 6 -11 6l-15 -4q-16 -3 -41 -7t-46 -5l-36 -48q24 4 35 4q34 0 57.5 -20t23.5 -54q0 -46 -34 -69t-83 -23q-47 0 -97 21l16 40q35 -15 65 -15
q57 0 57 40q0 41 -49 41q-22 0 -38 -8l-17 19l53 73q-88 10 -153 81.5t-65 174.5q0 107 73.5 185t177.5 78q29 0 70 -10t43 -10q6 0 23 17z" />
    <glyph glyph-name="egrave" unicode="&#xe8;" 
d="M586 223h-488q11 -78 69 -124.5t141 -46.5q108 0 157 47v-113q-10 16 -23 17q-4 0 -20.5 -3t-36.5 -7.5t-25 -5.5q-17 -3 -52 -3q-116 0 -199 73.5t-83 186.5q0 115 78.5 188.5t196.5 73.5q117 0 195 -78.5t78 -175.5q0 -10 12 -29zM99 291h403q-18 69 -71.5 108
t-128.5 39q-76 0 -128.5 -38.5t-74.5 -108.5zM175 700h108l89 -141h-67z" />
    <glyph glyph-name="eacute" unicode="&#xe9;" 
d="M586 223h-488q11 -78 69 -124.5t141 -46.5q108 0 157 47v-113q-10 16 -23 17q-4 0 -20.5 -3t-36.5 -7.5t-25 -5.5q-17 -3 -52 -3q-116 0 -199 73.5t-83 186.5q0 115 78.5 188.5t196.5 73.5q117 0 195 -78.5t78 -175.5q0 -10 12 -29zM99 291h403q-18 69 -71.5 108
t-128.5 39q-76 0 -128.5 -38.5t-74.5 -108.5zM438 700l-130 -141h-67l89 141h108z" />
    <glyph glyph-name="ecircumflex" unicode="&#xea;" 
d="M586 223h-488q11 -78 69 -124.5t141 -46.5q108 0 157 47v-113q-10 16 -23 17q-4 0 -20.5 -3t-36.5 -7.5t-25 -5.5q-17 -3 -52 -3q-116 0 -199 73.5t-83 186.5q0 115 78.5 188.5t196.5 73.5q117 0 195 -78.5t78 -175.5q0 -10 12 -29zM99 291h403q-18 69 -71.5 108
t-128.5 39q-76 0 -128.5 -38.5t-74.5 -108.5zM161 559l99 141h92l100 -141h-80l-66 94l-66 -94h-79z" />
    <glyph glyph-name="edieresis" unicode="&#xeb;" 
d="M586 223h-488q11 -78 69 -124.5t141 -46.5q108 0 157 47v-113q-10 16 -23 17q-4 0 -20.5 -3t-36.5 -7.5t-25 -5.5q-17 -3 -52 -3q-116 0 -199 73.5t-83 186.5q0 115 78.5 188.5t196.5 73.5q117 0 195 -78.5t78 -175.5q0 -10 12 -29zM99 291h403q-18 69 -71.5 108
t-128.5 39q-76 0 -128.5 -38.5t-74.5 -108.5zM377 658q19 0 32.5 -13.5t13.5 -32.5t-13.5 -32.5t-32.5 -13.5t-32.5 13.5t-13.5 32.5t13.5 32.5t32.5 13.5zM236 658q19 0 32.5 -13.5t13.5 -32.5t-13.5 -32.5t-32.5 -13.5t-32.5 13.5t-13.5 32.5t13.5 32.5t32.5 13.5z" />
    <glyph glyph-name="igrave" unicode="&#xec;" horiz-adv-x="222" 
d="M164 0h-106q18 9 18 71v374q0 35 -16 45h86v-449q0 -31 18 -41zM-20 700h108l89 -141h-67z" />
    <glyph glyph-name="iacute" unicode="&#xed;" horiz-adv-x="222" 
d="M164 0h-106q18 9 18 71v374q0 35 -16 45h86v-449q0 -31 18 -41zM243 700l-130 -141h-67l89 141h108z" />
    <glyph glyph-name="icircumflex" unicode="&#xee;" horiz-adv-x="222" 
d="M164 0h-106q18 9 18 71v374q0 35 -16 45h86v-449q0 -31 18 -41zM-34 559l99 141h92l100 -141h-80l-66 94l-66 -94h-79z" />
    <glyph glyph-name="idieresis" unicode="&#xef;" horiz-adv-x="222" 
d="M164 0h-106q18 9 18 71v374q0 35 -16 45h86v-449q0 -31 18 -41zM182 658q19 0 32.5 -13.5t13.5 -32.5t-13.5 -32.5t-32.5 -13.5t-32.5 13.5t-13.5 32.5t13.5 32.5t32.5 13.5zM41 658q19 0 32.5 -13.5t13.5 -32.5t-13.5 -32.5t-32.5 -13.5t-32.5 13.5t-13.5 32.5
t13.5 32.5t32.5 13.5z" />
    <glyph glyph-name="eth" unicode="&#xf0;" 
d="M503 245q0 79 -58.5 136t-139.5 57t-139.5 -57t-58.5 -136t58.5 -136t139.5 -57t139.5 57t58.5 136zM166 694l62 18q43 -26 82 -60l113 60l31 -42l-101 -53q95 -84 158.5 -179t63.5 -178q0 -119 -79 -197.5t-191 -78.5q-110 0 -190 76t-80 185t80 185t190 76q45 0 79 -12
l2 2q-39 46 -89 91l-114 -61l-31 42l104 55q-43 40 -90 71z" />
    <glyph glyph-name="ntilde" unicode="&#xf1;" horiz-adv-x="556" 
d="M58 49v319q0 11 -9 29q36 12 64.5 32t44 36t46.5 28.5t77 12.5q88 0 152 -64.5t64 -152.5v-230q0 -43 22 -59h-112q13 8 16.5 20t3.5 36v223q0 67 -45 113t-112 46q-28 0 -54 -11t-40 -23.5t-29 -28t-19 -18.5v-322q0 -16 25 -35h-111q16 11 16 49zM397 684h51
q-3 -41 -30.5 -75t-67.5 -34q-29 0 -78 19t-75 19q-15 0 -27.5 -14.5t-14.5 -30.5h-47q3 46 31 77t73 31q34 0 75 -18q44 -19 63 -19q42 0 47 45z" />
    <glyph glyph-name="ograve" unicode="&#xf2;" 
d="M305 -16q-110 0 -190 76t-80 185t80 185t190 76t190 -76t80 -185t-80 -185t-190 -76zM503 245q0 79 -58.5 136t-139.5 57t-139.5 -57t-58.5 -136t58.5 -136t139.5 -57t139.5 57t58.5 136zM175 700h108l89 -141h-67z" />
    <glyph glyph-name="oacute" unicode="&#xf3;" 
d="M305 -16q-110 0 -190 76t-80 185t80 185t190 76t190 -76t80 -185t-80 -185t-190 -76zM503 245q0 79 -58.5 136t-139.5 57t-139.5 -57t-58.5 -136t58.5 -136t139.5 -57t139.5 57t58.5 136zM438 700l-130 -141h-67l89 141h108z" />
    <glyph glyph-name="ocircumflex" unicode="&#xf4;" 
d="M305 -16q-110 0 -190 76t-80 185t80 185t190 76t190 -76t80 -185t-80 -185t-190 -76zM503 245q0 79 -58.5 136t-139.5 57t-139.5 -57t-58.5 -136t58.5 -136t139.5 -57t139.5 57t58.5 136zM161 559l99 141h92l100 -141h-80l-66 94l-66 -94h-79z" />
    <glyph glyph-name="otilde" unicode="&#xf5;" 
d="M305 -16q-110 0 -190 76t-80 185t80 185t190 76t190 -76t80 -185t-80 -185t-190 -76zM503 245q0 79 -58.5 136t-139.5 57t-139.5 -57t-58.5 -136t58.5 -136t139.5 -57t139.5 57t58.5 136zM425 684h51q-3 -41 -30.5 -75t-67.5 -34q-29 0 -78 19t-75 19q-15 0 -27.5 -14.5
t-14.5 -30.5h-47q3 46 31 77t73 31q34 0 75 -18q44 -19 63 -19q42 0 47 45z" />
    <glyph glyph-name="odieresis" unicode="&#xf6;" 
d="M305 -16q-110 0 -190 76t-80 185t80 185t190 76t190 -76t80 -185t-80 -185t-190 -76zM503 245q0 79 -58.5 136t-139.5 57t-139.5 -57t-58.5 -136t58.5 -136t139.5 -57t139.5 57t58.5 136zM377 658q19 0 32.5 -13.5t13.5 -32.5t-13.5 -32.5t-32.5 -13.5t-32.5 13.5
t-13.5 32.5t13.5 32.5t32.5 13.5zM236 658q19 0 32.5 -13.5t13.5 -32.5t-13.5 -32.5t-32.5 -13.5t-32.5 13.5t-13.5 32.5t13.5 32.5t32.5 13.5z" />
    <glyph glyph-name="divide" unicode="&#xf7;" horiz-adv-x="600" 
d="M544 217h-488v56h488v-56zM242 445q0 24 18 41.5t41 17.5t40.5 -18t17.5 -41q0 -22 -17.5 -40t-40.5 -18t-41 17.5t-18 40.5zM242 45q0 24 17.5 41t41.5 17q23 0 40.5 -17.5t17.5 -40.5t-17.5 -41t-40.5 -18t-41 18t-18 41z" />
    <glyph glyph-name="oslash" unicode="&#xf8;" 
d="M462 361l-268 -274q49 -35 111 -35q81 0 139.5 57t58.5 136q0 66 -41 116zM151 126l270 274q-52 38 -116 38q-81 0 -139.5 -57t-58.5 -136q0 -67 44 -119zM144 36l-51 -52h-82l90 91q-66 72 -66 170q0 109 80 185t190 76q92 0 166 -55l54 55h79l-92 -94q63 -73 63 -167
q0 -109 -80 -185t-190 -76q-89 0 -161 52z" />
    <glyph glyph-name="ugrave" unicode="&#xf9;" horiz-adv-x="556" 
d="M402 490h111q-16 -11 -16 -49v-319q0 -11 9 -29q-24 -14 -52 -36.5l-46 -36.5t-53 -25t-81 -11q-91 0 -153.5 55t-62.5 145v247q0 43 -22 59h112q-13 -8 -16.5 -20t-3.5 -36v-244q0 -64 41.5 -101t108.5 -37q38 0 70.5 15.5t45.5 28.5t29 32q3 4 4 5v322q0 16 -25 35z
M147 700h108l89 -141h-67z" />
    <glyph glyph-name="uacute" unicode="&#xfa;" horiz-adv-x="556" 
d="M402 490h111q-16 -11 -16 -49v-319q0 -11 9 -29q-24 -14 -52 -36.5l-46 -36.5t-53 -25t-81 -11q-91 0 -153.5 55t-62.5 145v247q0 43 -22 59h112q-13 -8 -16.5 -20t-3.5 -36v-244q0 -64 41.5 -101t108.5 -37q38 0 70.5 15.5t45.5 28.5t29 32q3 4 4 5v322q0 16 -25 35z
M410 700l-130 -141h-67l89 141h108z" />
    <glyph glyph-name="ucircumflex" unicode="&#xfb;" horiz-adv-x="556" 
d="M402 490h111q-16 -11 -16 -49v-319q0 -11 9 -29q-24 -14 -52 -36.5l-46 -36.5t-53 -25t-81 -11q-91 0 -153.5 55t-62.5 145v247q0 43 -22 59h112q-13 -8 -16.5 -20t-3.5 -36v-244q0 -64 41.5 -101t108.5 -37q38 0 70.5 15.5t45.5 28.5t29 32q3 4 4 5v322q0 16 -25 35z
M133 559l99 141h92l100 -141h-80l-66 94l-66 -94h-79z" />
    <glyph glyph-name="udieresis" unicode="&#xfc;" horiz-adv-x="556" 
d="M402 490h111q-16 -11 -16 -49v-319q0 -11 9 -29q-24 -14 -52 -36.5l-46 -36.5t-53 -25t-81 -11q-91 0 -153.5 55t-62.5 145v247q0 43 -22 59h112q-13 -8 -16.5 -20t-3.5 -36v-244q0 -64 41.5 -101t108.5 -37q38 0 70.5 15.5t45.5 28.5t29 32q3 4 4 5v322q0 16 -25 35z
M349 658q19 0 32.5 -13.5t13.5 -32.5t-13.5 -32.5t-32.5 -13.5t-32.5 13.5t-13.5 32.5t13.5 32.5t32.5 13.5zM208 658q19 0 32.5 -13.5t13.5 -32.5t-13.5 -32.5t-32.5 -13.5t-32.5 13.5t-13.5 32.5t13.5 32.5t32.5 13.5z" />
    <glyph glyph-name="yacute" unicode="&#xfd;" horiz-adv-x="500" 
d="M123 -115l89 167l-183 377q-23 45 -44 61h115q-8 -7 -8 -18q0 -13 23 -62l133 -294h2l136 294q23 49 23 62q0 11 -8 18h113q-21 -16 -44 -61l-277 -562q-2 -5 -7 -14t-8 -15t-3 -10q0 -10 6 -17h-112q24 20 54 74zM382 700l-130 -141h-67l89 141h108z" />
    <glyph glyph-name="thorn" unicode="&#xfe;" 
d="M58 -201v878q0 20 -12 35h82v-276q3 2 16 9.5l17.5 10t16 9.5t17.5 9.5t17 8t18 8t18 6t19 5t18 3t20 1.5q114 0 191 -76.5t77 -188.5q0 -111 -81.5 -184t-193.5 -73q-118 0 -166 73l-4 -2v-256q0 -21 20 -33h-110q20 12 20 33zM128 362v-230q44 -44 80.5 -62t103.5 -18
q82 0 135.5 57t53.5 139q0 78 -58.5 134t-138.5 56q-40 0 -73 -13t-65.5 -36.5t-37.5 -26.5z" />
    <glyph glyph-name="ydieresis" unicode="&#xff;" horiz-adv-x="500" 
d="M123 -115l89 167l-183 377q-23 45 -44 61h115q-8 -7 -8 -18q0 -13 23 -62l133 -294h2l136 294q23 49 23 62q0 11 -8 18h113q-21 -16 -44 -61l-277 -562q-2 -5 -7 -14t-8 -15t-3 -10q0 -10 6 -17h-112q24 20 54 74zM321 658q19 0 32.5 -13.5t13.5 -32.5t-13.5 -32.5
t-32.5 -13.5t-32.5 13.5t-13.5 32.5t13.5 32.5t32.5 13.5zM180 658q19 0 32.5 -13.5t13.5 -32.5t-13.5 -32.5t-32.5 -13.5t-32.5 13.5t-13.5 32.5t13.5 32.5t32.5 13.5z" />
    <glyph glyph-name="dotlessi" unicode="&#x131;" horiz-adv-x="222" 
d="M164 0h-106q18 9 18 71v374q0 35 -16 45h86v-449q0 -31 18 -41z" />
    <glyph glyph-name="Lslash" unicode="&#x141;" horiz-adv-x="444" 
d="M438 0h-374q12 15 12 35v291l-84 -42v68l84 43v282q0 20 -12 35h100q-12 -15 -12 -35v-244l134 67v-68l-134 -68v-296h217q36 0 69 15v-83z" />
    <glyph glyph-name="lslash" unicode="&#x142;" horiz-adv-x="222" 
d="M164 0h-106q18 9 18 71v276l-66 -39v54l66 39v266q0 35 -16 45h86v-269l66 39v-54l-66 -39v-348q0 -31 18 -41z" />
    <glyph glyph-name="OE" unicode="&#x152;" horiz-adv-x="1000" 
d="M602 636v76h364v-75q-25 7 -54 7h-234v-253h140q47 0 67 12v-92q-20 12 -67 12h-140v-255h234q29 0 54 7v-75h-367v70q-85 -86 -228 -86q-91 0 -170.5 42t-131.5 128.5t-52 201.5t52 201.5t131.5 128.5t170.5 42q155 0 229 -92h2zM602 240v248q0 47 -20 80.5t-55 51
t-73 25t-83 7.5q-126 0 -201 -84t-77 -212q2 -128 77 -212t201 -84q116 0 173.5 46.5t57.5 133.5z" />
    <glyph glyph-name="oe" unicode="&#x153;" horiz-adv-x="1007" 
d="M538 291h373q-13 65 -66 106t-123 41q-143 0 -184 -147zM987 223h-449q13 -79 71 -125t137 -46q68 0 137 48v-114q-19 12 -38 12q-2 0 -26 -4.5t-32 -5.5q-38 -4 -56 -4q-67 0 -128.5 28.5t-95.5 82.5q-33 -51 -90.5 -81t-124.5 -30q-110 0 -190.5 76t-80.5 185t80.5 185
t190.5 76q65 0 121.5 -28.5t89.5 -76.5q51 55 103.5 80t123.5 25q121 0 189 -82.5t68 -200.5zM93 245q0 -80 55.5 -136.5t135.5 -56.5t135.5 56.5t55.5 136.5t-55.5 136.5t-135.5 56.5t-135.5 -56.5t-55.5 -136.5z" />
    <glyph glyph-name="Scaron" unicode="&#x160;" horiz-adv-x="444" 
d="M347 720v-106q-56 46 -119 46q-45 0 -72.5 -27.5t-27.5 -71.5q0 -26 21.5 -49t53.5 -39t69 -40t69 -49.5t53.5 -69.5t21.5 -98q0 -101 -68 -166.5t-173 -65.5q-15 0 -55 9q-34 9 -56 9q-13 0 -29 -14v128q56 -56 127 -56q78 0 128 40.5t50 115.5q0 45 -21.5 79
t-53.5 53.5l-69 41l-69 40.5t-53.5 52.5t-21.5 77.5q0 73 44.5 120.5t117.5 47.5q12 0 61 -7q47 -9 48 -9q14 0 24 8zM288 897h80l-100 -141h-92l-99 141h79l66 -94z" />
    <glyph glyph-name="scaron" unicode="&#x161;" horiz-adv-x="333" 
d="M278 504v-101q-42 35 -89 35q-79 0 -79 -63q0 -30 22 -49.5t53.5 -31t63.5 -27t54 -48.5t22 -84q0 -65 -45 -108t-110 -43q-44 0 -84 10q-7 1 -23 5.5t-22 4.5q-11 0 -19 -12h-1v120q55 -60 128 -60q104 0 104 75q0 38 -22 62t-53.5 36.5l-63.5 26.5t-54 44.5t-22 78.5
q0 60 40 95.5t101 35.5q20 0 43 -5q33 -5 34 -5q15 0 22 8zM233 700h80l-100 -141h-92l-99 141h79l66 -94z" />
    <glyph glyph-name="Ydieresis" unicode="&#x178;" 
d="M3 712h121q-9 -7 -9 -18q0 -4 16 -28l169 -256l170 256q16 24 16 28q0 11 -9 18h130q-9 -6 -24 -26l-248 -343v-299q0 -20 14 -44h-104q14 24 14 44v299l-230 332q-22 33 -26 37zM377 855q19 0 32.5 -13.5t13.5 -32.5t-13.5 -32.5t-32.5 -13.5t-32.5 13.5t-13.5 32.5
t13.5 32.5t32.5 13.5zM236 855q19 0 32.5 -13.5t13.5 -32.5t-13.5 -32.5t-32.5 -13.5t-32.5 13.5t-13.5 32.5t13.5 32.5t32.5 13.5z" />
    <glyph glyph-name="Zcaron" unicode="&#x17d;" horiz-adv-x="500" 
d="M-1 0l362 644h-256q-30 0 -57 -16v84h432l-363 -644h314q30 0 57 16v-84h-489zM316 897h80l-100 -141h-92l-99 141h79l66 -94z" />
    <glyph glyph-name="zcaron" unicode="&#x17e;" horiz-adv-x="444" 
d="M428 0h-433l296 426h-174q-51 0 -68 -18v82h373l-308 -426h241q59 0 73 24v-88zM288 700h80l-100 -141h-92l-99 141h79l66 -94z" />
    <glyph glyph-name="florin" unicode="&#x192;" 
d="M14 -239v79q39 -6 40 -6q42 0 74 16t51 38t33.5 60.5t21 66.5t14.5 74l46 261h-104q-20 0 -40 -11v79h159q11 76 27 128.5t46 96t77.5 64.5t115.5 21q13 0 22 6v-81q-18 7 -45 7q-37 0 -66.5 -15.5t-47 -37.5t-30.5 -57.5t-19 -64t-12 -67.5h151v-82q-26 14 -61 14h-101
l-62 -335q-45 -249 -270 -249q-8 0 -20 -5z" />
    <glyph glyph-name="circumflex" unicode="&#x2c6;" horiz-adv-x="222" 
d="M-34 559l99 141h92l100 -141h-80l-66 94l-66 -94h-79z" />
    <glyph glyph-name="caron" unicode="&#x2c7;" horiz-adv-x="222" 
d="M177 700h80l-100 -141h-92l-99 141h79l66 -94z" />
    <glyph glyph-name="uni02C9" unicode="&#x2c9;" horiz-adv-x="222" 
d="M267 593h-311v57h311v-57z" />
    <glyph glyph-name="breve" unicode="&#x2d8;" horiz-adv-x="222" 
d="M-43 699h49q14 -77 110 -77q84 0 100 77h49q-16 -135 -158 -135q-67 0 -106.5 34.5t-43.5 100.5z" />
    <glyph glyph-name="dotaccent" unicode="&#x2d9;" horiz-adv-x="222" 
d="M111 658q19 0 32.5 -13.5t13.5 -32.5t-13.5 -32.5t-32.5 -13.5t-32.5 13.5t-13.5 32.5t13.5 32.5t32.5 13.5z" />
    <glyph glyph-name="ring" unicode="&#x2da;" horiz-adv-x="222" 
d="M111 719q-24 0 -41 -17.5t-17 -40.5t17 -40.5t41 -17.5t41 17.5t17 40.5t-17 40.5t-41 17.5zM111 763q42 0 72 -30.5t30 -71.5t-30 -71.5t-72 -30.5t-72 30.5t-30 71.5t30 71.5t72 30.5z" />
    <glyph glyph-name="ogonek" unicode="&#x2db;" horiz-adv-x="222" 
d="M255 19v-10q-150 -52 -150 -122q0 -53 60 -53q31 0 98 43l16 -32q-81 -57 -147 -57q-44 0 -73.5 21.5t-29.5 64.5q0 24 10.5 44.5t32 35.5t40.5 25t51 18.5t47.5 12t44.5 9.5z" />
    <glyph glyph-name="tilde" unicode="&#x2dc;" horiz-adv-x="222" 
d="M230 684h51q-3 -41 -30.5 -75t-67.5 -34q-29 0 -78 19t-75 19q-15 0 -27.5 -14.5t-14.5 -30.5h-47q3 46 31 77t73 31q34 0 75 -18q44 -19 63 -19q42 0 47 45z" />
    <glyph glyph-name="hungarumlaut" unicode="&#x2dd;" horiz-adv-x="222" 
d="M37 559l72 141h95l-104 -141h-63zM181 559l83 141h104l-120 -141h-67z" />
    <glyph glyph-name="uni03A9" unicode="&#x3a9;" horiz-adv-x="798" 
d="M226 53v3q-67 54 -110.5 137.5t-43.5 187.5q0 152 95 249.5t235 97.5q142 0 232.5 -101.5t90.5 -242.5q0 -107 -45.5 -193.5t-109.5 -134.5v-3h170v-53h-258v39q75 44 125.5 131t50.5 204q0 72 -28 139t-88.5 114.5t-140.5 47.5q-116 0 -189 -88t-73 -215q0 -111 52 -201
t124 -132v-39h-258v53h169z" />
    <glyph glyph-name="uni03BC" unicode="&#x3bc;" horiz-adv-x="556" 
d="M58 -175v606q0 43 -22 59h112q-13 -8 -16.5 -20t-3.5 -36v-234q0 -77 42.5 -112.5t107.5 -35.5q38 0 70.5 15.5t45.5 28.5t29 32q3 4 4 5v322q0 16 -25 35h111q-16 -11 -16 -49v-319q0 -11 9 -29q-24 -14 -52 -36.5l-46 -36.5t-53 -25t-81 -11q-92 0 -146 50v-268h-92
q22 16 22 59z" />
    <glyph glyph-name="pi" unicode="&#x3c0;" horiz-adv-x="615" 
d="M586 477h-92v-322q0 -101 16 -155h-64q-18 30 -18 146v331h-213q-6 -115 -30 -263.5t-52 -213.5h-66q30 76 53.5 218t29.5 259q-90 0 -128 -15l-11 43q46 27 150 27h432z" />
    <glyph glyph-name="uni2010" unicode="&#x2010;" horiz-adv-x="333" 
d="M43 198v79h181q30 0 66 18v-81h-188q-39 0 -59 -16z" />
    <glyph glyph-name="endash" unicode="&#x2013;" horiz-adv-x="500" 
d="M500 217h-500v56h500v-56z" />
    <glyph glyph-name="emdash" unicode="&#x2014;" horiz-adv-x="1000" 
d="M0 217v56h1000v-56h-1000z" />
    <glyph glyph-name="quoteleft" unicode="&#x2018;" horiz-adv-x="222" 
d="M58 712h93q-12 -10 -12 -17q0 -2 8 -40l31 -143h-46q10 8 10 14q0 3 -16 40z" />
    <glyph glyph-name="quoteright" unicode="&#x2019;" horiz-adv-x="222" 
d="M164 712l-68 -146q-16 -37 -16 -40q0 -6 10 -14h-46l31 143q8 38 8 40q0 7 -12 17h93z" />
    <glyph glyph-name="quotesinglbase" unicode="&#x201a;" horiz-adv-x="222" 
d="M164 88l-68 -146q-16 -37 -16 -40q0 -6 10 -14h-46l31 143q8 38 8 40q0 7 -12 17h93z" />
    <glyph glyph-name="quotedblleft" unicode="&#x201c;" horiz-adv-x="389" 
d="M58 712h93q-12 -10 -12 -17q0 -2 8 -40l31 -143h-46q10 8 10 14t-16 40zM225 712h93q-12 -10 -12 -17q0 -2 8 -40l31 -143h-46q10 8 10 14t-16 40z" />
    <glyph glyph-name="quotedblright" unicode="&#x201d;" horiz-adv-x="389" 
d="M164 712l-68 -146q-16 -37 -16 -40q0 -6 10 -14h-46l31 143q8 38 8 40q0 7 -12 17h93zM331 712l-68 -146q-16 -37 -16 -40q0 -6 10 -14h-46l31 143q8 38 8 40q0 7 -12 17h93z" />
    <glyph glyph-name="quotedblbase" unicode="&#x201e;" horiz-adv-x="389" 
d="M164 88l-68 -146q-16 -37 -16 -40q0 -6 10 -14h-46l31 143q8 38 8 40q0 7 -12 17h93zM331 88l-68 -146q-16 -37 -16 -40q0 -6 10 -14h-46l31 143q8 38 8 40q0 7 -12 17h93z" />
    <glyph glyph-name="dagger" unicode="&#x2020;" horiz-adv-x="556" 
d="M516 487v-100q-24 20 -55 20h-146v-593q0 -31 18 -41h-108q18 10 18 41v593h-149q-31 0 -55 -20v100q24 -20 55 -20h149v204q0 31 -18 41h108q-18 -10 -18 -41v-204h146q31 0 55 20z" />
    <glyph glyph-name="daggerdbl" unicode="&#x2021;" horiz-adv-x="556" 
d="M333 -227h-108q18 10 18 41v205h-149q-31 0 -55 -20v100q24 -20 55 -20h149v328h-149q-31 0 -55 -20v100q24 -20 55 -20h149l-1 204q0 31 -18 41h109q-18 -10 -18 -41v-204h146q31 0 55 20v-100q-24 20 -55 20h-146v-328h146q31 0 55 20v-100q-16 13 -32 18q-9 2 -23 2
h-146v-205q0 -31 18 -41z" />
    <glyph glyph-name="bullet" unicode="&#x2022;" horiz-adv-x="500" 
d="M425 350q0 -73 -51 -124t-124 -51t-124 51t-51 124q-1 73 50 124t125 51q73 0 124 -51t51 -124z" />
    <glyph glyph-name="ellipsis" unicode="&#x2026;" horiz-adv-x="1000" 
d="M167 88q20 0 35.5 -15t15.5 -36t-15.5 -36t-35.5 -15t-35.5 15t-15.5 36t15.5 36t35.5 15zM500 88q20 0 35.5 -15t15.5 -36t-15.5 -36t-35.5 -15t-35.5 15t-15.5 36t15.5 36t35.5 15zM833 88q20 0 35.5 -15t15.5 -36t-15.5 -36t-35.5 -15t-35.5 15t-15.5 36t15.5 36
t35.5 15z" />
    <glyph glyph-name="perthousand" unicode="&#x2030;" horiz-adv-x="1000" 
d="M160 712q61 0 104.5 -43.5t43.5 -104.5t-43.5 -104.5t-104.5 -43.5t-104.5 43.5t-43.5 104.5t43.5 104.5t104.5 43.5zM160 656q-38 0 -65 -27t-27 -65t27 -65t65 -27t65 27t27 65t-27 65t-65 27zM472 296q61 0 104.5 -43.5t43.5 -104.5t-43.5 -104.5t-104.5 -43.5
t-104.5 43.5t-43.5 104.5t43.5 104.5t104.5 43.5zM472 240q-38 0 -65 -27t-27 -65t27 -65t65 -27t65 27t27 65t-27 65t-65 27zM841 296q61 0 104.5 -43.5t43.5 -104.5t-43.5 -104.5t-104.5 -43.5t-104.5 43.5t-43.5 104.5t43.5 104.5t104.5 43.5zM841 240q-38 0 -65 -27
t-27 -65t27 -65t65 -27t65 27t27 65t-27 65t-65 27zM486 728h65q-15 -22 -37 -61l-354 -643q-13 -24 -13 -28q0 -6 6 -12h-74q17 17 32 44l368 673q8 12 8 17q0 7 -1 10z" />
    <glyph glyph-name="guilsinglleft" unicode="&#x2039;" horiz-adv-x="333" 
d="M186 91l-123 154l120 154h84l-121 -154l123 -154h-83z" />
    <glyph glyph-name="guilsinglright" unicode="&#x203a;" horiz-adv-x="333" 
d="M147 399l123 -154l-120 -154h-84l121 154l-123 154h83z" />
    <glyph glyph-name="fraction" unicode="&#x2044;" horiz-adv-x="167" 
d="M251 728h83q-21 -19 -44 -61l-376 -643q-13 -24 -13 -28q0 -6 6 -12h-74q15 14 32 44l364 627q26 45 26 56q0 12 -4 17z" />
    <glyph glyph-name="Euro" unicode="&#x20ac;" 
d="M469 325l-13 -67h-263q17 -96 83.5 -151t156.5 -55q40 0 83 14t66 36v-107q-10 9 -26 9q-10 0 -50.5 -10t-79.5 -10q-116 0 -198.5 76.5t-106.5 197.5h-57q-24 0 -49 -9l13 67h84q-2 30 -2 45q0 13 2 37h-48q-24 0 -49 -9l13 67h92q26 126 115 199t215 73q31 0 67 -10
q34 -10 47 -10q14 0 20 6v-97q-53 43 -143 43q-102 0 -165.5 -58t-82.5 -146h254q24 0 49 9l-13 -67h-297l-3 -42q0 -14 2 -40h235q24 0 49 9z" />
    <glyph glyph-name="afii61289" unicode="&#x2113;" horiz-adv-x="521" 
d="M460 147l34 -28q-72 -130 -199 -130q-85 0 -128.5 55t-47.5 138v13q-11 -8 -32.5 -25.5l-31.5 -25.5l-22 40l38.5 31t47.5 40v287q0 130 46.5 187.5t112.5 57.5q64 0 98 -46.5t34 -117.5q0 -173 -229 -385v-29q0 -84 36.5 -126t89.5 -42q49 0 89 31.5t64 74.5zM181 551
v-248q86 88 133 164.5t47 151.5q0 119 -84 119q-38 0 -67 -45.5t-29 -141.5z" />
    <glyph glyph-name="trademark" unicode="&#x2122;" horiz-adv-x="990" 
d="M402 712v-50h-132v-362h-58v362h-132v50h322zM526 657v-357h-58v412h95l128 -323l124 323h95v-412h-58v357h-2l-143 -357h-36l-143 357h-2z" />
    <glyph glyph-name="Omega" unicode="&#x2126;" horiz-adv-x="798" 
d="M226 53v3q-67 54 -110.5 137.5t-43.5 187.5q0 152 95 249.5t235 97.5q142 0 232.5 -101.5t90.5 -242.5q0 -107 -45.5 -193.5t-109.5 -134.5v-3h170v-53h-258v39q75 44 125.5 131t50.5 204q0 72 -28 139t-88.5 114.5t-140.5 47.5q-116 0 -189 -88t-73 -215q0 -111 52 -201
t124 -132v-39h-258v53h169z" />
    <glyph glyph-name="estimated" unicode="&#x212e;" horiz-adv-x="897" 
d="M861 346h-669q-5 0 -5 -5v-202q0 -13 8 -23q105 -110 254 -110q78 0 147 32.5t119 90.5h59q-56 -66 -142 -105t-185 -39q-170 0 -291 108.5t-121 262.5t121 263t291 109q172 0 293 -109t121 -263v-10zM709 372v204q0 14 -10 24q-105 105 -250 105q-147 0 -252 -108
q-10 -10 -10 -26v-199q0 -7 5 -7h513q4 0 4 7z" />
    <glyph glyph-name="partialdiff" unicode="&#x2202;" horiz-adv-x="588" 
d="M110 695l-25 46q75 58 178 58q111 0 190 -102t79 -287q0 -117 -30 -210.5t-94.5 -152.5t-154.5 -59q-99 0 -152.5 71t-53.5 166q0 115 68 187t162 72q70 0 119.5 -37t68.5 -73h1q2 14 2 50q0 144 -62 232.5t-149 88.5q-82 0 -147 -50zM258 41h1q79 0 132 77.5t66 188.5
q-16 44 -62.5 84t-108.5 40q-71 0 -122.5 -59.5t-51.5 -144.5q0 -80 40.5 -133t105.5 -53z" />
    <glyph glyph-name="uni2206" unicode="&#x2206;" horiz-adv-x="708" 
d="M35 0v48l282 689h76l280 -689v-48h-638zM101 53h500l-170 417q-5 15 -36.5 91.5t-39.5 104.5h-5q-6 -20 -33 -88t-35 -90z" />
    <glyph glyph-name="product" unicode="&#x220f;" horiz-adv-x="758" 
d="M730 658h-124v-757h-64v757h-327v-757h-64v757h-123v58h702v-58z" />
    <glyph glyph-name="summation" unicode="&#x2211;" horiz-adv-x="603" 
d="M578 -99h-554v43l302 363l-288 364v45h524v-56h-430v-4l270 -341l-290 -350v-3h466v-61z" />
    <glyph glyph-name="minus" unicode="&#x2212;" horiz-adv-x="600" 
d="M544 217h-488v56h488v-56z" />
    <glyph glyph-name="uni2215" unicode="&#x2215;" horiz-adv-x="167" 
d="M251 728h83q-21 -19 -44 -61l-376 -643q-13 -24 -13 -28q0 -6 6 -12h-74q15 14 32 44l364 627q26 45 26 56q0 12 -4 17z" />
    <glyph glyph-name="uni2219" unicode="&#x2219;" horiz-adv-x="305" 
d="M153 296q20 0 35.5 -15t15.5 -36t-15.5 -36t-35.5 -15t-35.5 15t-15.5 36t15.5 36t35.5 15z" />
    <glyph glyph-name="radical" unicode="&#x221a;" horiz-adv-x="613" 
d="M613 849l-242 -1005h-60l-178 483l-81 -31l-15 41l137 53l148 -403l18 -68l1 -1q3 21 14 68l207 863h51z" />
    <glyph glyph-name="infinity" unicode="&#x221e;" horiz-adv-x="832" 
d="M776 298v-1q0 -73 -47.5 -119.5t-113.5 -46.5q-48 0 -91.5 30.5t-106.5 99.5q-28 -32 -45 -48.5t-44 -39t-55.5 -32.5t-59.5 -10q-64 0 -110.5 47.5t-46.5 115.5q0 71 47 118t118 47q55 0 100.5 -34t99.5 -97q31 35 45.5 49.5t42.5 38.5t55.5 33.5t58.5 9.5q69 0 111 -45
t42 -116zM220 175h1q20 0 39.5 6.5t40 22.5t31.5 25.5t33.5 33.5t27.5 29q-59 69 -88 91q-44 34 -92 34q-50 0 -80 -36.5t-30 -88.5q0 -49 32.5 -83t84.5 -34zM618 417h-1q-26 0 -54.5 -15t-44 -29t-43 -43l-31.5 -33q64 -68 99.5 -95t76.5 -27q50 0 80 36t30 83
q0 57 -31.5 90t-80.5 33z" />
    <glyph glyph-name="integral" unicode="&#x222b;" horiz-adv-x="372" 
d="M357 857l-13 -45q-15 12 -40 12q-36 0 -55 -23q-39 -43 -39 -187q0 -79 7 -259t7 -262q0 -142 -48 -207q-32 -48 -97 -48q-41 0 -68 18l13 46q29 -13 50 -13q32 0 51 24q40 49 40 181q0 83 -7.5 265.5t-7.5 261.5q0 84 13 134t43 80q37 38 94 38q32 0 57 -16z" />
    <glyph glyph-name="approxequal" unicode="&#x2248;" horiz-adv-x="617" 
d="M535 442l28 -25q-53 -98 -137 -98q-22 0 -44 6.5t-36.5 13.5t-49.5 26q-66 36 -104 36q-35 0 -59.5 -21t-50.5 -59l-30 24q54 99 148 99q18 0 38 -5.5t30.5 -10.5t31 -16t23.5 -13l15.5 -8l15.5 -8l13 -6.5t15 -6.5t14 -4t16 -3t17 -1q32 0 56.5 19t49.5 61zM535 263
l28 -25q-53 -97 -137 -97q-8 0 -14.5 0.5t-14.5 2.5t-13 3t-14 4.5t-12.5 5t-14 6.5t-14 6.5t-16.5 8.5t-17 9q-64 36 -103 36q-36 0 -60.5 -20.5t-50.5 -59.5l-30 24q54 99 147 99q19 0 39.5 -5.5t30 -9.5t31 -16t23.5 -13q3 -1 11.5 -6t11.5 -6.5t11 -6t11.5 -6l10.5 -4.5
t12 -4t11.5 -2.5t13 -2t13.5 -0.5q33 0 57 18.5t49 60.5z" />
    <glyph glyph-name="notequal" unicode="&#x2260;" horiz-adv-x="617" 
d="M433 525l-51 -109h178v-44h-197l-76 -161h273v-44h-292l-60 -129l-36 17l53 112h-169v44h188l76 161h-264v44h282l60 127z" />
    <glyph glyph-name="lessequal" unicode="&#x2264;" horiz-adv-x="617" 
d="M557 92l-494 240v47l494 239v-53l-444 -208v-2l444 -210v-53zM560 3h-504v45h504v-45z" />
    <glyph glyph-name="greaterequal" unicode="&#x2265;" horiz-adv-x="617" 
d="M63 618l495 -240v-46l-495 -240v53l444 209v2l-444 209v53zM559 3h-502v45h502v-45z" />
    <glyph glyph-name="lozenge" unicode="&#x25ca;" horiz-adv-x="614" 
d="M553 358l-221 -407h-53l-219 407l221 407h53zM492 356l-165 304q-16 36 -20 50h-3q-10 -30 -21 -50l-163 -301l166 -305q16 -34 19 -50h4q5 20 19 49z" />
    <glyph glyph-name="fi" unicode="&#xfb01;" horiz-adv-x="500" 
d="M427 490v-449q0 -31 18 -41h-106q18 9 18 71v374q0 35 -16 45h86zM391 657q18 0 31.5 -13t13.5 -32t-13.5 -32t-31.5 -13t-31.5 13t-13.5 32t13.5 32t31.5 13zM21 414v74h66v55q0 77 53.5 131t106.5 54q17 0 35 8v-80h-10q-50 0 -82.5 -28.5t-32.5 -85.5v-52h125v-76
q-10 4 -25 6q-18 2 -27 2h-73v-381q0 -31 18 -41h-106q18 9 18 71v351h-30q-18 0 -36 -8z" />
    <glyph glyph-name="fl" unicode="&#xfb02;" horiz-adv-x="500" 
d="M21 414v74h66v55q0 77 53.5 131t106.5 54q17 0 35 8v-80h-10q-50 0 -82.5 -28.5t-32.5 -85.5v-52h125v-76q-10 4 -25 6q-18 2 -27 2h-73v-381q0 -31 18 -41h-106q18 9 18 71v351h-30q-18 0 -36 -8zM445 0h-106q18 9 18 71v596q0 35 -16 45h86v-671q0 -31 18 -41z" />
    <glyph glyph-name="a.superior" horiz-adv-x="367" 
d="M346 622v-179q0 -12 13 -18h-69v32l-3 2q-18 -44 -97 -44q-73 0 -126 43.5t-53 110.5t50 113t124 46q20 0 39 -5t29 -10t31 -17t31 -17q24 -14 38 -16q-7 -6 -7 -41zM290 514v118q-41 45 -94 45q-51 0 -90 -32t-39 -72q0 -42 35.5 -74.5t87.5 -32.5q38 0 59.5 11t40.5 37
z" />
    <glyph glyph-name="o.superior" horiz-adv-x="367" 
d="M183 415q-72 0 -123.5 45.5t-51.5 110.5q0 66 51.5 111.5t123.5 45.5t124 -46t52 -111t-52 -110.5t-124 -45.5zM183 466q53 0 86.5 29t33.5 76q0 48 -33.5 77t-86.5 29t-86 -29t-33 -77q0 -47 33 -76t86 -29z" />
    <glyph glyph-name="one.superior" horiz-adv-x="366" 
d="M83 520l-40 24q13 7 23 18l174 166v-412q0 -20 9 -25h-79q14 7 14 43v278z" />
    <glyph glyph-name="two.superior" horiz-adv-x="366" 
d="M69 571h-62q6 18 6 25q0 41 50 86.5t122 45.5q65 0 112 -41.5t47 -98.5q0 -42 -17 -68t-57 -61l-131 -117h161q21 0 40 7v-58h-329l199 186q2 2 10.5 9.5t11 10t10 9.5t10.5 11t9.5 10.5t9 11.5t7 11.5t6 12t3 12.5t1.5 13q0 38 -34 63.5t-78 25.5q-47 0 -77 -33t-30 -73
z" />
    <glyph glyph-name="three.superior" horiz-adv-x="366" 
d="M115 606h-59q5 9 9 31q7 40 46 65.5t85 25.5q55 0 90.5 -32t35.5 -82q0 -37 -31 -65q35 -12 55 -44t20 -68q0 -66 -49.5 -111t-124.5 -45q-72 0 -123 46.5t-51 104.5q0 11 -4 18h60q0 -47 33 -82.5t85 -35.5q51 0 84.5 32t33.5 73q0 75 -111 105q33 10 50 25.5t17 44.5
q0 24 -19.5 44.5t-50.5 20.5q-32 0 -56.5 -22t-24.5 -49z" />
    </font>
</defs>
</svg>
