<?xml version="1.0" standalone="no"?>
<!DOCTYPE svg PUBLIC "-//W3C//DTD SVG 20010904//EN"
 "http://www.w3.org/TR/2001/REC-SVG-20010904/DTD/svg10.dtd">
<svg version="1.0" xmlns="http://www.w3.org/2000/svg"
 width="500.000000pt" height="500.000000pt" viewBox="0 0 500.000000 500.000000"
 preserveAspectRatio="xMidYMid meet">
<metadata>
Created by potrace 1.11, written by Peter Selinger 2001-2013
</metadata>
<g transform="translate(0.000000,500.000000) scale(0.100000,-0.100000)"
fill="#000000" stroke="none">
<path d="M2719 3388 c-71 -142 -783 -1538 -880 -1726 l-79 -153 146 3 145 3
499 980 c275 539 500 983 500 988 0 4 -63 7 -140 7 l-140 0 -51 -102z"/>
<path d="M1250 2922 l-495 -207 0 -145 0 -144 499 -208 c275 -114 503 -208
508 -208 4 0 8 69 8 154 l0 154 -310 124 c-170 67 -310 126 -310 129 0 3 140
61 310 129 l310 124 0 153 c0 116 -3 153 -12 152 -7 0 -236 -94 -508 -207z"/>
<path d="M3230 2977 l0 -153 310 -124 c171 -68 310 -126 310 -129 0 -3 -140
-62 -310 -129 l-310 -124 0 -154 c0 -85 4 -154 8 -154 5 0 233 94 508 208
l499 208 0 144 0 145 -495 207 c-272 113 -501 207 -507 207 -10 1 -13 -36 -13
-152z"/>
</g>
</svg>
